<svg xmlns="http://www.w3.org/2000/svg" width="150.71" height="67.447" viewBox="0 0 150.71 67.447">
  <g id="Group_1891" data-name="Group 1891" transform="translate(-383.819 -0.617)">
    <path id="Path_2659" data-name="Path 2659" d="M409.712,41.393l1.03-2.836h7.476l1.031,2.836h4.9l-7.089-18.044H411.9l-7.089,18.044Zm4.3-11.909a9.1,9.1,0,0,0,.464-1.83,8.969,8.969,0,0,0,.464,1.83l1.856,5.207H412.16Z" transform="translate(-17.346 -0.986)" fill="#2c2c2c"/>
    <path id="Path_2660" data-name="Path 2660" d="M426.828,23.349V41.393H431.6V35.722h2.371c4.46-.026,7.862-1.444,7.862-6.187s-3.4-6.187-7.862-6.187Zm10.1,6.187c0,1.624-1.289,2.062-2.733,2.062h-2.6V27.473h2.6C435.643,27.473,436.933,27.911,436.933,29.536Z" transform="translate(-18.301 -0.986)" fill="#2c2c2c"/>
    <path id="Path_2661" data-name="Path 2661" d="M444.827,23.349V41.393H449.6V35.722h2.371c4.46-.026,7.862-1.444,7.862-6.187s-3.4-6.187-7.862-6.187Zm10.1,6.187c0,1.624-1.289,2.062-2.732,2.062h-2.6V27.473h2.6C453.643,27.473,454.932,27.911,454.932,29.536Z" transform="translate(-19.082 -0.986)" fill="#2c2c2c"/>
    <path id="Path_2662" data-name="Path 2662" d="M462.827,23.349V41.393h13.146V37.269H467.6V34.33h7.449v-4.1H467.6V27.473h8.223V23.349Z" transform="translate(-19.863 -0.986)" fill="#2c2c2c"/>
    <path id="Path_2663" data-name="Path 2663" d="M478.029,23.349V27.6h5.1V41.393H487.9V27.6h5.078V23.349Z" transform="translate(-20.523 -0.986)" fill="#2c2c2c"/>
    <path id="Path_2664" data-name="Path 2664" d="M494.277,32.353c0,5.027,3.222,9.409,9.667,9.409s9.667-4.382,9.667-9.409-3.222-9.409-9.667-9.409S494.277,27.327,494.277,32.353Zm14.435,0c0,2.887-1.649,5.027-4.769,5.027s-4.769-2.139-4.769-5.027,1.649-5.027,4.769-5.027S508.712,29.466,508.712,32.353Z" transform="translate(-21.228 -0.969)" fill="#2c2c2c"/>
    <path id="Path_2665" data-name="Path 2665" d="M521.857,41.393V34.021c0-.979-.026-2.114-.1-2.964l7.064,10.337h4.51V23.349h-4.769v7.372c0,1.005.026,2.139.1,2.99L521.6,23.349h-4.511V41.393Z" transform="translate(-22.217 -0.986)" fill="#2c2c2c"/>
    <path id="Path_2666" data-name="Path 2666" d="M426.732,56.878v13.53h-.811L416.7,58.656V70.408h-.985V56.878h.831l9.2,11.752V56.878Z" transform="translate(-17.819 -2.441)" fill="#2c2c2c"/>
    <path id="Path_2667" data-name="Path 2667" d="M437.463,70.505a5.288,5.288,0,0,1-4-1.488,6.092,6.092,0,0,1-1.411-4.349v-7.79h.986v7.751a5.34,5.34,0,0,0,1.14,3.731,5.008,5.008,0,0,0,6.591,0,5.34,5.34,0,0,0,1.14-3.731V56.878h.986v7.79a6.038,6.038,0,0,1-1.431,4.349A5.286,5.286,0,0,1,437.463,70.505Z" transform="translate(-18.528 -2.441)" fill="#2c2c2c"/>
    <path id="Path_2668" data-name="Path 2668" d="M450.4,57.767h-4.87v-.889h10.727v.889H451.39V70.408H450.4Z" transform="translate(-19.113 -2.441)" fill="#2c2c2c"/>
    <path id="Path_2669" data-name="Path 2669" d="M468.7,70.408l-3.228-4.523a9.878,9.878,0,0,1-1.314.1h-3.866v4.426H459.3V56.878h4.852a6.031,6.031,0,0,1,4,1.218,4.1,4.1,0,0,1,1.45,3.344,4.132,4.132,0,0,1-3.17,4.233l3.383,4.736Zm-4.542-5.3a5.053,5.053,0,0,0,3.305-.947,3.376,3.376,0,0,0,1.14-2.725,3.318,3.318,0,0,0-1.14-2.706,4.982,4.982,0,0,0-3.305-.966h-3.866v7.345Z" transform="translate(-19.71 -2.441)" fill="#2c2c2c"/>
    <path id="Path_2670" data-name="Path 2670" d="M473.846,56.878h.985v13.53h-.985Z" transform="translate(-20.341 -2.441)" fill="#2c2c2c"/>
    <path id="Path_2671" data-name="Path 2671" d="M482.292,57.767h-4.871v-.889h10.727v.889h-4.871V70.408h-.985Z" transform="translate(-20.496 -2.441)" fill="#2c2c2c"/>
    <path id="Path_2672" data-name="Path 2672" d="M491.19,56.878h.986v13.53h-.986Z" transform="translate(-21.094 -2.441)" fill="#2c2c2c"/>
    <path id="Path_2673" data-name="Path 2673" d="M502.832,70.5a7.292,7.292,0,0,1-3.6-.889,6.768,6.768,0,0,1-2.532-2.474,7.2,7.2,0,0,1,0-7,6.624,6.624,0,0,1,2.532-2.455,7.169,7.169,0,0,1,3.6-.908,7.29,7.29,0,0,1,3.595.889,6.481,6.481,0,0,1,2.513,2.455,7.132,7.132,0,0,1,0,7.036,6.481,6.481,0,0,1-2.513,2.455A7.291,7.291,0,0,1,502.832,70.5Zm0-.909a6.149,6.149,0,0,0,3.073-.773,5.71,5.71,0,0,0,2.165-2.126,5.99,5.99,0,0,0,.793-3.054,5.886,5.886,0,0,0-.793-3.035,5.669,5.669,0,0,0-2.165-2.145,6.149,6.149,0,0,0-3.073-.773,6.259,6.259,0,0,0-3.093.773,5.669,5.669,0,0,0-2.165,2.145,5.886,5.886,0,0,0-.793,3.035,5.989,5.989,0,0,0,.793,3.054,5.71,5.71,0,0,0,2.165,2.126A6.259,6.259,0,0,0,502.832,69.592Z" transform="translate(-21.293 -2.437)" fill="#2c2c2c"/>
    <path id="Path_2674" data-name="Path 2674" d="M525.1,56.878v13.53h-.812l-9.22-11.752V70.408h-.985V56.878h.831l9.2,11.752V56.878Z" transform="translate(-22.087 -2.441)" fill="#2c2c2c"/>
    <path id="Path_2675" data-name="Path 2675" d="M534.268,50.38H401V48.948H534.268Z" transform="translate(-17.181 -2.097)" fill="#2c2c2c" fill-rule="evenodd"/>
    <path id="Path_2676" data-name="Path 2676" d="M534.268,14.281H401V12.849H534.268Z" transform="translate(-17.181 -0.531)" fill="#2c2c2c" fill-rule="evenodd"/>
    <path id="Path_2677" data-name="Path 2677" d="M550.321,10.41V8.342h.725l1.514,2.067h1.9l-1.751-2.3a1.873,1.873,0,0,0,1.216-1.9c0-1.677-1.315-2.14-2.6-2.14h-2.675V10.41Zm0-4.9h1.07a.708.708,0,0,1,.807.734.708.708,0,0,1-.807.734h-1.07Z" transform="translate(-23.586 -0.149)" fill="#2c2c2c"/>
    <path id="Path_2678" data-name="Path 2678" d="M551.383,13.1a5.917,5.917,0,1,0-5.918-5.917A5.917,5.917,0,0,0,551.383,13.1Zm0,.649a6.567,6.567,0,1,0-6.566-6.567A6.566,6.566,0,0,0,551.383,13.75Z" transform="translate(-23.42 0)" fill="#2c2c2c" fill-rule="evenodd"/>
  </g>
</svg>
