<svg xmlns="http://www.w3.org/2000/svg" width="198.976" height="73.659" viewBox="0 0 198.976 73.659">
  <g id="Group_1890" data-name="Group 1890" transform="translate(-714.808 -5.766)">
    <path id="Path_2611" data-name="Path 2611" d="M835.987,26.322v3.915A5.283,5.283,0,0,0,838,29.976c.389-.261.583-.848.583-1.827a1.714,1.714,0,0,0-.713-1.631A7.482,7.482,0,0,0,835.987,26.322Zm0-6.2v3.393a5.267,5.267,0,0,0,1.752-.261c.389-.2.584-.783.584-1.631a1.244,1.244,0,0,0-.714-1.3C837.415,20.124,836.831,20.124,835.987,20.124Zm1.557,12.918h-5.189V17.253h4.8c3.307,0,4.994,1.37,4.994,4.11a3.5,3.5,0,0,1-1.751,3.327v.065a3.691,3.691,0,0,1,1.622,1.5,5.356,5.356,0,0,1,.388,2.283Q842.312,33.042,837.545,33.042Z" transform="translate(-35.895 -0.722)" fill="#2c2c2c"/>
    <path id="Path_2612" data-name="Path 2612" d="M848.138,17.253H844.83V33.042h3.308Z" transform="translate(-36.436 -0.722)" fill="#2c2c2c"/>
    <path id="Path_2613" data-name="Path 2613" d="M855.958,29.364V27.538c-.453.2-.973.457-1.686.848a1.83,1.83,0,0,0-.779,1.5c0,.848.389,1.24,1.232,1.24S855.958,30.539,855.958,29.364Zm.389,3.849-.259-1.044a3.7,3.7,0,0,1-2.854,1.435,2.828,2.828,0,0,1-2.205-.848,3.111,3.111,0,0,1-.843-2.283,3.8,3.8,0,0,1,1.491-3.327,14.251,14.251,0,0,1,2.789-1.044c1.038-.326,1.491-.783,1.491-1.5a1.2,1.2,0,0,0-.259-.848.869.869,0,0,0-.778-.326,1.039,1.039,0,0,0-1.038.522,2.823,2.823,0,0,0-.194,1.3h-3.308c-.13-2.74,1.362-4.045,4.475-4.045a5.21,5.21,0,0,1,3.437.848,3.5,3.5,0,0,1,1.038,2.805V32.1a3.838,3.838,0,0,0,.259,1.3h-3.243Z" transform="translate(-36.669 -0.893)" fill="#2c2c2c"/>
    <path id="Path_2614" data-name="Path 2614" d="M861.644,21.4h3.113v1.5h.065a2.8,2.8,0,0,1,.908-1.24,2.045,2.045,0,0,1,1.427-.522,3.049,3.049,0,0,1,2.075.653,2.149,2.149,0,0,1,.844,1.827v9.656h-3.308V24.86c0-.653-.324-.979-.908-.979s-.908.326-.908.979v8.416h-3.308Z" transform="translate(-37.166 -0.89)" fill="#2c2c2c"/>
    <path id="Path_2615" data-name="Path 2615" d="M881.123,25.77H878.01v-.2c0-.326-.065-.783-.129-1.37a.845.845,0,0,0-.909-.718c-.649,0-1.037.457-1.037,1.435v4.893c0,.913.324,1.37,1.037,1.37.519,0,.844-.326.973-1.044,0-.2.065-.783.065-1.7h3.243a10.192,10.192,0,0,1-.259,2.805,3.136,3.136,0,0,1-3.113,2.284,7.463,7.463,0,0,1-1.1.065c-2.724,0-4.151-1.24-4.151-3.654V25.118c0-2.74,1.362-4.045,4.151-4.045a4.543,4.543,0,0,1,3.5,1.174A4.6,4.6,0,0,1,881.123,25.77Z" transform="translate(-37.642 -0.887)" fill="#2c2c2c"/>
    <path id="Path_2616" data-name="Path 2616" d="M841.047,55h-8.691V39.214h8.431v3.132h-4.734v2.936h4.605v3.132h-4.605v3.458h4.994Z" transform="translate(-35.895 -1.675)" fill="#2c2c2c"/>
    <path id="Path_2617" data-name="Path 2617" d="M843.407,43.363h3.113v1.5h.065a2.794,2.794,0,0,1,.908-1.24,2.045,2.045,0,0,1,1.427-.522,3.049,3.049,0,0,1,2.075.652,2.148,2.148,0,0,1,.843,1.827v9.656h-3.307V46.821c0-.652-.324-.979-.908-.979s-.909.326-.909.979v8.416h-3.307Z" transform="translate(-36.375 -1.843)" fill="#2c2c2c"/>
    <path id="Path_2618" data-name="Path 2618" d="M856.813,43.375l1.1,7.633h.064l1.168-7.633h3.243L859.8,55.184h-3.761l-2.594-11.809Z" transform="translate(-36.81 -1.855)" fill="#2c2c2c"/>
    <path id="Path_2619" data-name="Path 2619" d="M867.6,55h-3.308V43.194H867.6Zm0-12.918h-3.308V39.214H867.6Z" transform="translate(-37.281 -1.675)" fill="#2c2c2c"/>
    <path id="Path_2620" data-name="Path 2620" d="M869.983,43.357H873.1v1.762h.065a2.561,2.561,0,0,1,2.594-2.153v3.784a5.214,5.214,0,0,0-1.038-.065,1.923,1.923,0,0,0-1.037.2,1.146,1.146,0,0,0-.389.979V55.1h-3.308Z" transform="translate(-37.528 -1.837)" fill="#2c2c2c"/>
    <path id="Path_2621" data-name="Path 2621" d="M880.613,46.818V52.1c.065.718.389,1.044,1.038,1.044.584,0,.972-.326,1.037-1.044V46.818c0-.913-.324-1.37-1.037-1.37S880.613,45.9,880.613,46.818Zm-3.308,5.089V47.079c0-2.675,1.427-4.045,4.346-4.045S886,44.4,886,47.079v4.828c0,2.414-1.427,3.654-4.345,3.654a4.718,4.718,0,0,1-3.049-.848A3.1,3.1,0,0,1,877.305,51.907Z" transform="translate(-37.845 -1.84)" fill="#2c2c2c"/>
    <path id="Path_2622" data-name="Path 2622" d="M898.14,44.745h-3.7V43.7c0-1.37-.389-2.022-1.167-2.022a1.331,1.331,0,0,0-1.1.391,2.027,2.027,0,0,0-.324,1.24v7.829c0,.913.454,1.435,1.3,1.435.908,0,1.362-.783,1.362-2.284V48.855h3.7v1.957a4.3,4.3,0,0,1-1.232,3.327,5.8,5.8,0,0,1-4.086,1.3c-3.113,0-4.734-1.7-4.734-5.024V43.9c0-3.327,1.621-5.024,4.928-5.024,3.373,0,5.059,1.5,5.059,4.567Z" transform="translate(-38.316 -1.66)" fill="#2c2c2c"/>
    <path id="Path_2623" data-name="Path 2623" d="M903.731,46.818V52.1c.065.718.389,1.044,1.038,1.044.584,0,.973-.326,1.038-1.044V46.818c0-.913-.324-1.37-1.038-1.37S903.731,45.9,903.731,46.818Zm-3.307,5.089V47.079c0-2.675,1.426-4.045,4.345-4.045s4.345,1.37,4.345,4.045v4.828c0,2.414-1.426,3.654-4.345,3.654a4.713,4.713,0,0,1-3.048-.848A3.1,3.1,0,0,1,900.424,51.907Z" transform="translate(-38.848 -1.84)" fill="#2c2c2c"/>
    <path id="Path_2624" data-name="Path 2624" d="M911.542,43.363h3.114v1.5h.064a2.8,2.8,0,0,1,.909-1.24,2.043,2.043,0,0,1,1.426-.522,3.052,3.052,0,0,1,2.076.652,2.148,2.148,0,0,1,.843,1.827v9.656h-3.308V46.821c0-.652-.324-.979-.908-.979s-.908.326-.908.979v8.416h-3.308Z" transform="translate(-39.331 -1.843)" fill="#2c2c2c"/>
    <path id="Path_2625" data-name="Path 2625" d="M930.273,46.883H927.16a4.957,4.957,0,0,0-.194-1.109.9.9,0,0,0-.909-.522c-.778,0-1.1.326-1.1.979,0,.457.324.848,1.038,1.174l2.14.979a4.548,4.548,0,0,1,1.687,1.24,3.734,3.734,0,0,1-.585,5.024,5.048,5.048,0,0,1-3.113.913c-3.048,0-4.475-1.3-4.345-3.98h3.178q-.1,1.762,1.167,1.762a1.016,1.016,0,0,0,1.168-1.109,1.061,1.061,0,0,0-.454-.913c-.779-.326-1.491-.652-2.27-1.044a6.7,6.7,0,0,1-2.011-1.37,3.167,3.167,0,0,1-.843-2.218,3.333,3.333,0,0,1,1.3-2.805,4.963,4.963,0,0,1,3.048-.848,5.053,5.053,0,0,1,3.114.913A3.547,3.547,0,0,1,930.273,46.883Z" transform="translate(-39.772 -1.84)" fill="#2c2c2c"/>
    <path id="Path_2626" data-name="Path 2626" d="M940.581,55.184h-3.113V53.748H937.4a2.8,2.8,0,0,1-.908,1.24,2.251,2.251,0,0,1-1.427.587c-2.01,0-2.983-.848-2.983-2.479V43.375h3.307v8.482c0,.718.26,1.044.844.979a.862.862,0,0,0,.973-.979V43.375h3.307V55.184Z" transform="translate(-40.222 -1.855)" fill="#2c2c2c"/>
    <path id="Path_2627" data-name="Path 2627" d="M946.714,39.214h-3.307V55h3.307Z" transform="translate(-40.713 -1.675)" fill="#2c2c2c"/>
    <path id="Path_2628" data-name="Path 2628" d="M949.789,45.7h-1.3V43.289h1.3V39.9H953.1v3.393h1.621V45.7H953.1v6.2c0,.522.259.848.714.848.194,0,.453-.065.843-.065v2.349a14.369,14.369,0,0,1-2.14.2c-1.881,0-2.788-.913-2.788-2.74V45.7Z" transform="translate(-40.934 -1.704)" fill="#2c2c2c"/>
    <path id="Path_2629" data-name="Path 2629" d="M840.324,76.964h-8.171V61.176h3.7V73.833h4.475Z" transform="translate(-35.886 -2.627)" fill="#2c2c2c"/>
    <path id="Path_2630" data-name="Path 2630" d="M845.7,76.964H842.39V65.155H845.7Zm0-12.918H842.39V61.176H845.7Z" transform="translate(-36.331 -2.627)" fill="#2c2c2c"/>
    <path id="Path_2631" data-name="Path 2631" d="M848.017,65.321h3.113v1.37h.065a2.836,2.836,0,0,1,2.464-1.7,3,3,0,0,1,1.492.391,2.189,2.189,0,0,1,.973,1.174h.064a2.713,2.713,0,0,1,2.4-1.566,3.049,3.049,0,0,1,2.075.652,2.149,2.149,0,0,1,.844,1.827V77.13H858.2V68.714c0-.652-.324-.979-.908-.979s-.908.326-.908.979V77.13h-3.308V68.714q-.2-.979-.778-.979a.863.863,0,0,0-.973.979V77.13h-3.308Z" transform="translate(-36.575 -2.793)" fill="#2c2c2c"/>
    <path id="Path_2632" data-name="Path 2632" d="M867.6,76.964h-3.308V65.155H867.6Zm0-12.918h-3.308V61.176H867.6Z" transform="translate(-37.281 -2.627)" fill="#2c2c2c"/>
    <path id="Path_2633" data-name="Path 2633" d="M870.67,67.664h-1.3V65.25h1.3V61.857h3.307V65.25H875.6v2.414h-1.621v6.2c0,.522.26.848.714.848.2,0,.454-.065.844-.065v2.349a14.391,14.391,0,0,1-2.141.2c-1.881,0-2.788-.913-2.788-2.74V67.664Z" transform="translate(-37.501 -2.657)" fill="#2c2c2c"/>
    <path id="Path_2634" data-name="Path 2634" d="M880.542,69.559h2.335V68.384a1.256,1.256,0,0,0-.26-.783.979.979,0,0,0-.908-.457q-1.167,0-1.167,1.566Zm5.642,2.218h-5.642v2.088c0,.783.324,1.174,1.038,1.24a1,1,0,0,0,1.037-.652,9.223,9.223,0,0,0,.13-1.435h3.308c.194,2.936-1.3,4.437-4.346,4.437a5.888,5.888,0,0,1-3.178-.783,3.338,3.338,0,0,1-1.362-2.871V68.972c0-2.675,1.492-4.045,4.475-4.045a6.115,6.115,0,0,1,3.114.718,2.992,2.992,0,0,1,1.361,2.675v3.458Z" transform="translate(-37.84 -2.79)" fill="#2c2c2c"/>
    <path id="Path_2635" data-name="Path 2635" d="M891.593,69.657v3.066c0,1.24.324,1.892.973,1.892.713,0,1.037-.652,1.037-2.022V69.788c0-1.5-.324-2.218-.973-2.218a.9.9,0,0,0-.908.783A3.484,3.484,0,0,0,891.593,69.657Zm5.318,7.307H893.8v-1.37h-.065a2.891,2.891,0,0,1-2.594,1.762c-1.946-.065-2.919-1.5-2.919-4.371v-4.11a5.71,5.71,0,0,1,.584-2.74,2.372,2.372,0,0,1,2.269-1.3,2.7,2.7,0,0,1,2.4,1.435h.065V61.176h3.307V76.964Z" transform="translate(-38.319 -2.627)" fill="#2c2c2c"/>
    <path id="Path_2636" data-name="Path 2636" d="M781.012,69.721a7.923,7.923,0,0,1-8.3,0,6.617,6.617,0,0,0-7.134,0,29.892,29.892,0,0,0,8.885,3.393,32.7,32.7,0,0,0,8.691.587c-.714-1.24-1.426-2.61-2.14-3.98Z" transform="translate(-32.998 -2.953)" fill="#2c2c2c"/>
    <path id="Path_2637" data-name="Path 2637" d="M794.033,71.382a8.474,8.474,0,0,0,1.1-.522,9.762,9.762,0,0,1-1.491.13Z" transform="translate(-34.216 -3.048)" fill="#2c2c2c"/>
    <path id="Path_2638" data-name="Path 2638" d="M793.423,69.633a6.11,6.11,0,0,0,3.567-1.044,7.247,7.247,0,0,1,3.178-1.109,20.065,20.065,0,0,0,2.529-2.153,5.641,5.641,0,0,0-1.556-.2,6.109,6.109,0,0,0-3.567,1.044,7.328,7.328,0,0,1-4.151,1.174,6.6,6.6,0,0,1-3.372-.783q1.264,1.664,2.334,2.936A2.674,2.674,0,0,0,793.423,69.633Z" transform="translate(-34.06 -2.799)" fill="#2c2c2c"/>
    <path id="Path_2639" data-name="Path 2639" d="M776.711,67.417a7.328,7.328,0,0,1-4.151-1.174,6.272,6.272,0,0,0-3.567-1.044,6.109,6.109,0,0,0-3.567,1.044,6.781,6.781,0,0,1-3.307,1.174c.713.522,1.426,1.044,2.205,1.566a3.6,3.6,0,0,0,.518-.326,7.923,7.923,0,0,1,8.3,0,6.272,6.272,0,0,0,3.567,1.044,6.109,6.109,0,0,0,3.567-1.044c.065,0,.065-.065.129-.065-.259-.587-.518-1.109-.778-1.7A8.073,8.073,0,0,1,776.711,67.417Z" transform="translate(-32.848 -2.802)" fill="#2c2c2c"/>
    <path id="Path_2640" data-name="Path 2640" d="M793.288,66.157a6.107,6.107,0,0,0,3.567-1.044,7.331,7.331,0,0,1,4.151-1.174,6.5,6.5,0,0,1,2.464.391c.454-.457.909-.913,1.362-1.435-.065-.065-.129-.065-.259-.13a6.271,6.271,0,0,0-3.567-1.044,6.109,6.109,0,0,0-3.567,1.044,7.923,7.923,0,0,1-8.3,0,6.813,6.813,0,0,0-2.2-.913c.519.979,1.1,1.827,1.621,2.675l1.168.587A6.106,6.106,0,0,0,793.288,66.157Z" transform="translate(-33.925 -2.651)" fill="#2c2c2c"/>
    <path id="Path_2641" data-name="Path 2641" d="M776.505,63.939a7.328,7.328,0,0,1-4.151-1.174,6.272,6.272,0,0,0-3.567-1.044,6.109,6.109,0,0,0-3.567,1.044,7.328,7.328,0,0,1-4.151,1.174,6.454,6.454,0,0,1-3.7-.979,36.065,36.065,0,0,0,3.178,3.132h.518a6.107,6.107,0,0,0,3.567-1.044,7.923,7.923,0,0,1,8.3,0,6.272,6.272,0,0,0,3.567,1.044,5.917,5.917,0,0,0,2.464-.457c-.324-.652-.583-1.3-.843-1.892A5.808,5.808,0,0,1,776.505,63.939Z" transform="translate(-32.642 -2.651)" fill="#2c2c2c"/>
    <path id="Path_2642" data-name="Path 2642" d="M780.237,22.164s-3.243.783-7.718,12.983A63.45,63.45,0,0,0,769.86,47.8a.313.313,0,0,1-.583.13c-1.232-2.479-4.086-9.591-.065-16.833C774.4,21.772,780.237,22.164,780.237,22.164Z" transform="translate(-33.066 -0.935)" fill="#2c2c2c"/>
    <path id="Path_2643" data-name="Path 2643" d="M800.081,37.541c-1.362-2.74-7.134-13.244-15.047-15.854,0,0,7.977.261,13.1,6.394a11.017,11.017,0,0,1,2.464,9.33C800.534,37.736,800.21,37.8,800.081,37.541Z" transform="translate(-33.842 -0.914)" fill="#2c2c2c"/>
    <path id="Path_2644" data-name="Path 2644" d="M793.728,70.877s-21.4-17.616-11.869-49.258a48.639,48.639,0,0,0-5.383,28.642c.778,6.394,4.8,16.18,9.793,24.009A21.3,21.3,0,0,0,793.728,70.877Z" transform="translate(-33.456 -0.911)" fill="#2c2c2c"/>
    <path id="Path_2645" data-name="Path 2645" d="M778.5,20.389S768.77,22.216,761.83,36.9a.205.205,0,0,1-.389-.065C761.506,33.242,762.673,19.606,778.5,20.389Z" transform="translate(-32.819 -0.856)" fill="#2c2c2c"/>
    <path id="Path_2646" data-name="Path 2646" d="M778.3,19.238s-5.253-1.044-12.063,2.218c-.194.13-.388-.2-.259-.326.779-.913,2.594-2.479,6.421-3.132A7.727,7.727,0,0,1,778.3,19.238Z" transform="translate(-33.014 -0.749)" fill="#2c2c2c"/>
    <path id="Path_2647" data-name="Path 2647" d="M787.8,51.636c0-4.436-.194-21.4-4.8-29.881,0,0,15.436,10.113,5.318,30.012A.278.278,0,0,1,787.8,51.636Z" transform="translate(-33.754 -0.917)" fill="#2c2c2c"/>
    <path id="Path_2648" data-name="Path 2648" d="M784.153,20.485a20.518,20.518,0,0,1,12.322,3.066c.129.065.259-.065.129-.2C794.984,21.66,790.444,17.81,784.153,20.485Z" transform="translate(-33.804 -0.822)" fill="#2c2c2c"/>
    <path id="Path_2649" data-name="Path 2649" d="M781.983,19.889s2.205-1.892,6.486-1.37C788.469,18.519,784.188,16.3,781.983,19.889Z" transform="translate(-33.71 -0.747)" fill="#2c2c2c"/>
    <path id="Path_2650" data-name="Path 2650" d="M783.153,77.953h-2.594v4.828h2.594Z" transform="translate(-33.648 -3.355)" fill="#2c2c2c"/>
    <path id="Path_2651" data-name="Path 2651" d="M783.153,6h-2.594V9.523h2.594Z" transform="translate(-33.648 -0.234)" fill="#2c2c2c"/>
    <path id="Path_2652" data-name="Path 2652" d="M787.048,9.861c0,.326-2.464.587-5.448.587s-5.447-.261-5.447-.587,2.464-.587,5.447-.587C784.649,9.274,787.048,9.535,787.048,9.861Z" transform="translate(-33.457 -0.376)" fill="#2c2c2c"/>
    <path id="Path_2653" data-name="Path 2653" d="M810.623,47.209c-.194.913-.453,1.827-.713,2.74a30.255,30.255,0,0,1-1.232,3.393,5.791,5.791,0,0,1-.519,1.109,24.459,24.459,0,0,1-1.556,2.871c-.13.261-.324.457-.454.718a31.044,31.044,0,0,1-52.078-.065c-.259-.391-.519-.848-.779-1.24a33.1,33.1,0,0,1-2.334-4.828,14.723,14.723,0,0,1-.519-1.566,29.92,29.92,0,0,1-.908-3.458,31.21,31.21,0,1,1,61.093.326ZM788.508,9.172a34.511,34.511,0,0,0-40.859,40.451c0,.13.065.326.065.457.065.261.065.522.129.718a25.949,25.949,0,0,0,.909,3.2c.129.326.194.652.323.979a34.576,34.576,0,0,0,10.767,15.071,33.363,33.363,0,0,0,14.592,6.916,34.436,34.436,0,0,0,39.172-21.334c.194-.522.389-1.109.583-1.631a34.35,34.35,0,0,0,1.038-3.915.24.24,0,0,1,.065-.2q.1-.587.194-1.174a31.254,31.254,0,0,0,.389-3.458A34.632,34.632,0,0,0,788.508,9.172Z" transform="translate(-32.192 -0.339)" fill="#2c2c2c"/>
  </g>
</svg>
