<svg xmlns="http://www.w3.org/2000/svg" width="127" height="135.868" viewBox="0 0 127 135.868"><defs><style>.a{fill:#1a1a1a;}</style></defs><g transform="translate(-16.709)"><path class="a" d="M194.29,131.654C182,121.389,175.166,107.42,171.6,97.509a7.127,7.127,0,0,0-13.415,0c-3.564,9.911-10.393,23.88-22.689,34.145a9.348,9.348,0,0,0-1.176,13.26,59.146,59.146,0,0,1,12.124,24.893l3.957,31.9a2.654,2.654,0,0,0,2.633,2.327h23.718a2.654,2.654,0,0,0,2.633-2.327l3.957-31.9a59.141,59.141,0,0,1,12.124-24.894A9.348,9.348,0,0,0,194.29,131.654Zm-19.882,67.074H155.38l-3.308-26.673h25.645Zm-9.514-51.433a4.6,4.6,0,1,1,4.6-4.6A4.6,4.6,0,0,1,164.894,147.295Zm26.54-5.831a63.965,63.965,0,0,0-12.845,25.284H167.548V152.238a9.907,9.907,0,1,0-5.307,0v14.509H151.2a63.977,63.977,0,0,0-12.846-25.284,4.046,4.046,0,0,1,.545-5.736c13.209-11.028,20.5-25.894,24.282-36.423a1.817,1.817,0,0,1,3.427,0c3.787,10.529,11.073,25.4,24.282,36.423A4.046,4.046,0,0,1,191.434,141.464Z" transform="translate(-84.767 -68.167)"/><path class="a" d="M135.215,1.743a8.506,8.506,0,0,0-7.887,5.346H89.869V6.231A6.238,6.238,0,0,0,83.638,0H76.615a6.238,6.238,0,0,0-6.231,6.231v.857H33.09a8.491,8.491,0,1,0,.329,5.307H59.678A45.947,45.947,0,0,0,38.312,34.618H36.9a6.238,6.238,0,0,0-6.231,6.231v7.022A6.238,6.238,0,0,0,36.9,54.1h7.022a6.238,6.238,0,0,0,6.231-6.231V40.85a6.238,6.238,0,0,0-5.949-6.224A40.591,40.591,0,0,1,70.439,14.06a6.239,6.239,0,0,0,6.177,5.424h7.022a6.239,6.239,0,0,0,6.177-5.423,40.869,40.869,0,0,1,26.229,20.564A6.238,6.238,0,0,0,110.1,40.85v7.022a6.238,6.238,0,0,0,6.231,6.231h7.022a6.238,6.238,0,0,0,6.231-6.231V40.85a6.238,6.238,0,0,0-6.231-6.231h-1.41A45.943,45.943,0,0,0,100.577,12.4H127a8.494,8.494,0,1,0,8.215-10.653ZM44.849,40.85v7.022a.925.925,0,0,1-.923.924H36.9a.925.925,0,0,1-.923-.924V40.85a.925.925,0,0,1,.923-.924h7.022A.925.925,0,0,1,44.849,40.85Zm79.425,0v7.022a.925.925,0,0,1-.923.924h-7.022a.925.925,0,0,1-.923-.924V40.85a.925.925,0,0,1,.923-.924h7.022A.925.925,0,0,1,124.274,40.85ZM25.2,13.424a3.187,3.187,0,1,1,3.187-3.187A3.191,3.191,0,0,1,25.2,13.424Zm59.358-.17a.925.925,0,0,1-.923.924H76.615a.925.925,0,0,1-.923-.924V6.231a.925.925,0,0,1,.923-.924h7.022a.925.925,0,0,1,.923.924Zm50.653.17a3.187,3.187,0,1,1,3.187-3.187A3.19,3.19,0,0,1,135.215,13.424Z"/><path class="a" d="M194.2,188.227a2.654,2.654,0,0,0-3.521,1.3,44.561,44.561,0,0,1-13.036,16.307,2.654,2.654,0,0,0,3.038,4.352A49.146,49.146,0,0,0,195.5,191.748,2.654,2.654,0,0,0,194.2,188.227Z" transform="translate(-117.394 -138.098)"/><path class="a" d="M245.654,157.167a2.654,2.654,0,0,0,0,5.307h.007a2.654,2.654,0,0,0-.007-5.307Z" transform="translate(-166.241 -115.46)"/></g></svg>