<svg xmlns="http://www.w3.org/2000/svg" width="158" height="157.982" viewBox="0 0 158 157.982">
    <defs>
        <style>
            .cls-1{fill:none;stroke:#474747;stroke-linecap:round;stroke-linejoin:round;stroke-width:2px}
        </style>
    </defs>
    <g id="_10-Graphic_design" transform="translate(.894 1)">
        <rect id="Rectangle_1419" width="20" height="20" class="cls-1" rx="1" transform="translate(.106 .174)"/>
        <rect id="Rectangle_1420" width="20" height="20" class="cls-1" rx="1" transform="translate(136.106 .174)"/>
        <rect id="Rectangle_1421" width="20" height="19" class="cls-1" rx="1" transform="translate(136.106 136.174)"/>
        <rect id="Rectangle_1422" width="20" height="19" class="cls-1" rx="1" transform="translate(.106 136.174)"/>
        <path id="Path_2779" d="M7 11.173h47.473V4.391A3.391 3.391 0 0 1 57.864 1h13.563a3.391 3.391 0 0 1 3.391 3.391v6.782h47.473" class="cls-1" transform="translate(13.89 -1)"/>
        <rect id="Rectangle_1423" width="20" height="20" class="cls-1" rx="1" transform="translate(.106 68.174)"/>
        <rect id="Rectangle_1424" width="20" height="20" class="cls-1" rx="1" transform="translate(136.106 68.174)"/>
        <path id="Line_31" d="M0 0L29 0" class="cls-1" transform="translate(107.106 146.174)"/>
        <path id="Line_32" d="M0 0L28 0" class="cls-1" transform="translate(20.106 146.174)"/>
        <path id="Line_33" d="M0 0L0 48" class="cls-1" transform="translate(11.106 20.174)"/>
        <path id="Line_34" d="M0 0L0 48" class="cls-1" transform="translate(11.106 88.174)"/>
        <path id="Line_35" d="M0 0L0 48" class="cls-1" transform="translate(146.106 88.174)"/>
        <path id="Line_36" d="M0 0L0 48" class="cls-1" transform="translate(146.106 20.174)"/>
        <path id="Path_2780" d="M47.909 7L14 74.818s16.955 0 16.955 16.955v6.782h6.782v13.564h20.345V98.554h6.782v-6.781c0-16.955 16.955-16.955 16.955-16.955z" class="cls-1" transform="translate(30.626 13.345)"/>
        <path id="Path_2781" d="M58.691 38v10.173a3.391 3.391 0 0 1-3.391 3.391H21.391A3.391 3.391 0 0 1 18 48.173V38z" class="cls-1" transform="translate(40.19 87.463)"/>
        <path id="Path_2782" d="M20 58.955V42h27.127v16.955" class="cls-1" transform="translate(44.972 97.027)"/>
        <path id="Line_37" d="M0 0L0 54" class="cls-1" transform="translate(78.106 20.174)"/>
        <ellipse id="Ellipse_260" cx="7.5" cy="7" class="cls-1" rx="7.5" ry="7" transform="translate(70.106 74.174)"/>
    </g>
</svg>
