<svg xmlns="http://www.w3.org/2000/svg" xmlns:xlink="http://www.w3.org/1999/xlink" width="276" height="244" viewBox="0 0 276 244">
  <defs>
    <clipPath id="clip-path">
      <rect id="Rectangle_1304" data-name="Rectangle 1304" width="276" height="244" rx="16" transform="translate(93 1505)" fill="#fff"/>
    </clipPath>
  </defs>
  <g id="Mask_Group_2" data-name="Mask Group 2" transform="translate(-93 -1505)" clip-path="url(#clip-path)">
    <path id="Path_2747" data-name="Path 2747" d="M87.676,2.954c-1.444-.457-3.029-.894-4.743-1.293-1.183-.276-2.8-.578-4.807-.891A65.5,65.5,0,0,0,27.57,14.19,72.028,72.028,0,0,0,1,59.381L.955,59.37l-.069.736a72.073,72.073,0,0,0,11.468,51.821,65.54,65.54,0,0,0,44.073,28.106l.075.012a64.455,64.455,0,0,0,23.774-.695,66.854,66.854,0,0,0,21.986-9.295L83.992,101.928a32.838,32.838,0,0,1-10.878,4.565h-.067a31.042,31.042,0,0,1-11.388.434l-.04-.009A32.107,32.107,0,0,1,40.088,92.994,38.552,38.552,0,0,1,33.9,65.946l.041.009.067-.733A38.544,38.544,0,0,1,48.205,40.611,32.189,32.189,0,0,1,73,33.893l2.307.5c.635.144,1.391.367,2.249.633Z" transform="matrix(-0.848, -0.53, 0.53, -0.848, 137.181, 1636.692)" fill="#ffe400" opacity="0.8"/>
  </g>
</svg>
