<svg xmlns="http://www.w3.org/2000/svg" width="145.84" height="64.614" viewBox="0 0 145.84 64.614"><defs><style>.a{fill:#666;}.b{fill:#1a1a1a;}</style></defs><path class="a" d="M2441.631,2004.264a30.038,30.038,0,0,1-20.559-10.27,33.507,33.507,0,0,1,.658-44.731,29.891,29.891,0,0,1,21.854-9.613,29.421,29.421,0,0,1,11.878,2.521,30.687,30.687,0,0,1,9.974,7.092l-8.544,8.039a18.97,18.97,0,0,0-6.162-4.383,17.709,17.709,0,0,0-7.146-1.508,18.224,18.224,0,0,0-13.31,5.891,21.9,21.9,0,0,0-.428,28.928,18.4,18.4,0,0,0,12.568,6.32Z" transform="translate(-2412.84 -1939.65)"/><path class="b" d="M2626.907,2181.047c-.506.159-1.059.312-1.658.452-.413.1-.977.2-1.679.31a22.892,22.892,0,0,1-17.67-4.689,25.173,25.173,0,0,1-9.285-15.8l-.017,0-.024-.256a25.186,25.186,0,0,1,4.008-18.111,22.894,22.894,0,0,1,15.4-9.824l.026,0a22.568,22.568,0,0,1,8.311.242,23.4,23.4,0,0,1,7.684,3.249l-6.386,9.83a11.485,11.485,0,0,0-3.8-1.594h-.023a10.838,10.838,0,0,0-3.981-.152l-.014,0a11.229,11.229,0,0,0-7.526,4.867,13.484,13.484,0,0,0-2.162,9.454l.014,0,.024.256a13.477,13.477,0,0,0,4.961,8.6,11.251,11.251,0,0,0,8.665,2.347l.807-.174c.221-.051.486-.127.786-.221Z" transform="translate(-2589.681 -2125.926)"/><path d="M3851.154,2390.03c-3.987,0-9.984,2.446-9.984,10.588s6,10.588,9.984,10.588a11.213,11.213,0,0,0,6.8-2.211l-2.212-4.724a6.879,6.879,0,0,1-4.087,1.507c-2.982,0-4.725-1.909-4.725-5.16,0-3.149,1.742-5.16,4.725-5.16a6.876,6.876,0,0,1,4.087,1.509l2.212-4.691A11.115,11.115,0,0,0,3851.154,2390.03Zm16.653,7.3v-6.9h-5.6v20.506h5.6V2402.7h6.2v8.243h5.6v-20.506h-5.6v6.9Zm32.467-.235a6.422,6.422,0,0,0-6.735-6.668h-9.448v20.506h5.6V2403.7h2.043l3.552,7.237h6.5l-4.557-8.243A6.4,6.4,0,0,0,3900.274,2397.1Zm-5.461,0a1.875,1.875,0,0,1-2.044,2.01h-3.083v-3.987h3.083A1.994,1.994,0,0,1,3894.813,2397.1Zm16.25-6.668h-5.6v20.506h5.6Zm14.776-.335c-3.987,0-9.984,2.446-9.984,10.588,0,8.175,5.83,10.587,9.984,10.587s9.918-2.412,9.918-10.587C3935.757,2392.476,3929.827,2390.1,3925.839,2390.1Zm0,4.959c2.982,0,3.787,2.982,3.787,5.63,0,3.518-1.072,5.729-3.787,5.729-2.613,0-3.853-2.211-3.853-5.729C3921.986,2398.038,3922.857,2395.056,3925.839,2395.056Z" transform="translate(-3789.917 -2373.869)"/><path d="M3851.525,3156.92a3.7,3.7,0,0,0,0,7.391,3.4,3.4,0,0,0,2.12-.727l-.422-.855a2.743,2.743,0,1,1,0-4.217l.422-.844A3.35,3.35,0,0,0,3851.525,3156.92Zm3.713.117v7.168h.984v-3.045h1.5l1.769,3.045h1.171l-1.909-3.186a2.036,2.036,0,0,0-.515-3.982Zm.984.844h1.909a1.223,1.223,0,0,1,0,2.436h-1.909Zm6.114-.844v7.168h4.579v-.937h-3.584v-2.389h2.881v-.866h-2.881v-2.038h3.584v-.937Zm8.4,0-2.343,7.168h1.019l.656-1.909h2.658l.645,1.909h1.019l-2.343-7.168Zm.656,1.078,1.089,3.291h-2.167Zm3-1.078v.914h2.319v6.254h1v-6.254h2.319v-.914Zm8.1,0h-1v7.168h1Zm1.476,0,2.448,7.168h1.136l2.425-7.168h-1.054l-1.944,5.692-1.956-5.692Zm7.836,0v7.168h4.579v-.937H3892.8v-2.389h2.882v-.866H3892.8v-2.038h3.584v-.937Zm11.911-.117c-1.218,0-2.424.586-2.424,1.968,0,2.143,3.42,1.756,3.42,3.314,0,.808-.738,1.171-1.464,1.171a3.9,3.9,0,0,1-1.828-.667l-.433.89a4.162,4.162,0,0,0,2.342.726,2.252,2.252,0,0,0,2.425-2.284c0-2.19-3.444-1.827-3.444-3.115,0-.808.832-1.1,1.511-1.1a2.565,2.565,0,0,1,1.453.48l.339-.773A2.967,2.967,0,0,0,3903.716,3156.92Zm2.823.117v.914h2.319v6.254h1v-6.254h2.319v-.914Zm7.039,0v4.263c0,.211,0,.409.012.621a2.546,2.546,0,0,0,5.083,0c.011-.211.011-.41.011-.621v-4.263h-.972v4.65a1.611,1.611,0,0,1-1.581,1.675,1.639,1.639,0,0,1-1.57-1.675v-4.65Zm6.817,0v7.168h2.178a3.379,3.379,0,0,0,3.186-3.607c0-1.921-1.136-3.561-3.186-3.561Zm1,.937h.855c.164,0,.316,0,.48.012,1.359.082,1.968,1.394,1.968,2.612,0,1.182-.656,2.553-1.968,2.658-.164.012-.316.012-.48.012h-.855Zm7.039-.937h-1v7.168h1Zm4.85-.117c-2.038,0-3.174,1.827-3.174,3.7,0,1.909,1.1,3.7,3.174,3.7s3.162-1.792,3.162-3.7C3936.441,3158.747,3935.329,3156.92,3933.279,3156.92Zm0,.89c1.534,0,2.1,1.511,2.1,2.811,0,1.323-.539,2.823-2.1,2.823s-2.1-1.51-2.1-2.823S3931.745,3157.81,3933.279,3157.81Zm6.875-.89c-1.218,0-2.424.586-2.424,1.968,0,2.143,3.42,1.756,3.42,3.314,0,.808-.738,1.171-1.464,1.171a3.894,3.894,0,0,1-1.827-.667l-.434.89a4.163,4.163,0,0,0,2.342.726,2.252,2.252,0,0,0,2.425-2.284c0-2.19-3.444-1.827-3.444-3.115,0-.808.832-1.1,1.511-1.1a2.562,2.562,0,0,1,1.452.48l.34-.773A2.969,2.969,0,0,0,3940.154,3156.92Z" transform="translate(-3796.502 -3113.24)"/></svg>