<svg xmlns="http://www.w3.org/2000/svg" width="205" height="177.511" viewBox="0 0 205 177.511">
    <path fill="#474747" d="M203.615 68.134l-29.962-21.24a3.287 3.287 0 0 0-1.9-.6l-25.253-.035-.292-42.768A3.291 3.291 0 0 0 142.89.223L3.174 1.388A3.212 3.212 0 0 0 0 4.678v143.346a29.562 29.562 0 0 0 29.392 29.71h.092a17.368 17.368 0 0 0 1.774-.223v.223h118.45v-.194a29.721 29.721 0 0 0 28.378-29.519v-17.057a3.368 3.368 0 0 0-3.261-3.406h-27.7l-.2-32.236h24.833a3.292 3.292 0 0 0 1.9-.591L203.615 73.5a3.284 3.284 0 0 0 0-5.361zM80.2 65.57l88.425.146v10.207l-88.425.146zm0-6.58v-6.23l88.425.106v6.27zm-6.58 29.9l-17.685.021V52.73l17.685.021zm6.58-6.237l88.425-.146v6.27L80.2 88.88zm91.3 65.368a23.114 23.114 0 0 1-22.971 23.136H48.055c.808-.823 1.685-1.439 2.434-2.185a29.7 29.7 0 0 0 8.738-21v-13.834h112.28zm-30.965-20.46h-84.8a3.233 3.233 0 0 0-3.1 3.406v17.005a23.3 23.3 0 0 1-23.165 23.184h-.07a22.982 22.982 0 0 1-22.817-23.135V7.941l133.159-1.11.223 39.409-87.515-.116a3.076 3.076 0 0 0-2.227.974 3.23 3.23 0 0 0-.863 2.338V92.2a3.193 3.193 0 0 0 .863 2.321 3.063 3.063 0 0 0 2.227.954l87.892-.156zm34.666-41.864V55.944l20.989 14.875zm0 0" transform="translate(-.001 -.223)"/>
</svg>
