<svg xmlns="http://www.w3.org/2000/svg" width="135.869" height="135.868" viewBox="0 0 135.869 135.868"><defs><style>.a{fill:#1a1a1a;}</style></defs><g transform="translate(-1 -1)"><path class="a" d="M77.859,37.008a19.722,19.722,0,0,0-32.694,12.13,19.631,19.631,0,0,0,8.95,19.2,4.31,4.31,0,0,1,1.841,3.653v3.835a8.766,8.766,0,1,0,17.531,0V71.9a4.221,4.221,0,0,1,1.889-3.594,19.712,19.712,0,0,0,2.483-31.3ZM64.723,80.21a4.387,4.387,0,0,1-4.383-4.383h8.766A4.387,4.387,0,0,1,64.723,80.21ZM62.532,51.721a2.191,2.191,0,1,1,2.191,2.191A2.194,2.194,0,0,1,62.532,51.721Zm10.475,12.9a8.55,8.55,0,0,0-3.874,6.82H66.915V57.892a6.574,6.574,0,1,0-4.383,0V71.444H60.307a8.545,8.545,0,0,0-3.833-6.8,15.332,15.332,0,0,1,6.449-28.16,15.892,15.892,0,0,1,1.817-.105,15.159,15.159,0,0,1,10.194,3.9,15.331,15.331,0,0,1-1.928,24.349Z" transform="translate(52.423 36.936)"/><path class="a" d="M33.859,37.008A19.722,19.722,0,0,0,1.165,49.138a19.631,19.631,0,0,0,8.95,19.2,4.307,4.307,0,0,1,1.843,3.653v3.835a8.766,8.766,0,0,0,17.531,0V71.9a4.221,4.221,0,0,1,1.889-3.594,19.713,19.713,0,0,0,2.481-31.3ZM20.723,80.21a4.387,4.387,0,0,1-4.383-4.383h8.766A4.387,4.387,0,0,1,20.723,80.21ZM18.532,51.721a2.191,2.191,0,1,1,2.191,2.191A2.194,2.194,0,0,1,18.532,51.721Zm10.475,12.9a8.55,8.55,0,0,0-3.874,6.82H22.915V57.892a6.574,6.574,0,1,0-4.383,0V71.444H16.308a8.545,8.545,0,0,0-3.833-6.8,15.332,15.332,0,0,1,6.449-28.16,15.893,15.893,0,0,1,1.817-.105,15.159,15.159,0,0,1,10.195,3.9,15.331,15.331,0,0,1-1.928,24.349Z" transform="translate(0 36.936)"/><path class="a" d="M40.34,13a6.111,6.111,0,0,0-5.211,2.886L25,32.094v75.137a15.34,15.34,0,1,0,30.68,0V32.094L45.551,15.886A6.111,6.111,0,0,0,40.34,13Zm-1.495,5.211a1.823,1.823,0,0,1,2.987,0L50.35,31.84l-5.2,2.6L40.34,29.624l-4.815,4.815-5.2-2.6ZM29.383,36.269l4.383,2.191v62.2H29.383Zm8.766,1.744,2.191-2.191,2.191,2.191v62.644H38.149Zm8.766.447L51.3,36.269v64.388H46.914ZM40.34,118.188a10.97,10.97,0,0,1-10.957-10.957V105.04H51.3v2.191A10.97,10.97,0,0,1,40.34,118.188Z" transform="translate(28.595 14.297)"/><path class="a" d="M9.766,18.531a8.756,8.756,0,0,0,8.455-6.574H60.168v2.969A50.476,50.476,0,0,0,18.531,64.551h4.383a46.02,46.02,0,0,1,92.04,0h4.383A50.476,50.476,0,0,0,77.7,14.926V11.957h41.948a8.766,8.766,0,1,0,0-4.383H77.7V1H60.168V7.574H18.22A8.751,8.751,0,1,0,9.766,18.531ZM128.1,5.383a4.383,4.383,0,1,1-4.383,4.383A4.387,4.387,0,0,1,128.1,5.383Zm-63.551,0h8.766v8.766H64.551Zm-54.786,0A4.383,4.383,0,1,1,5.383,9.766,4.387,4.387,0,0,1,9.766,5.383Z" transform="translate(0 0)"/></g></svg>