<svg xmlns="http://www.w3.org/2000/svg" width="130.548" height="157" viewBox="0 0 130.548 157">
    <defs>
        <style>
            .cls-1{fill:none;stroke:#474747;stroke-linecap:round;stroke-linejoin:round;stroke-width:2px}
        </style>
    </defs>
    <g id="_9-Digital_Art" transform="translate(.735 .519)">
        <rect id="Rectangle_1448" width="102" height="155" class="cls-1" rx="3" transform="translate(.265 .481)"/>
        <path id="Line_116" d="M0 0L68 0" class="cls-1" transform="translate(17.265 19.481)"/>
        <path id="Line_117" d="M0 0L68 0" class="cls-1" transform="translate(17.265 134.481)"/>
        <path id="Path_2850" d="M52.564 22.955L45.782 6 39 22.955v105.118a3.391 3.391 0 0 0 3.391 3.391h6.782a3.391 3.391 0 0 0 3.391-3.391z" class="cls-1" transform="translate(76.249 10.469)"/>
        <path id="Line_118" d="M0 0L13 0" class="cls-1" transform="translate(115.265 121.481)"/>
        <path id="Path_2851" d="M9 52.127L36.127 25l37.3 37.3" class="cls-1" transform="translate(4.522 55.896)"/>
        <path id="Path_2852" d="M22 39.564L35.564 26l16.954 16.955" class="cls-1" transform="translate(35.603 58.287)"/>
        <ellipse id="Ellipse_272" cx="13.5" cy="14" class="cls-1" rx="13.5" ry="14" transform="translate(41.265 37.481)"/>
    </g>
</svg>
