<svg xmlns="http://www.w3.org/2000/svg" width="98.943" height="122.69" viewBox="0 0 98.943 122.69">
  <g id="Group_1841" data-name="Group 1841" transform="translate(-837.201 -1752)">
    <path id="Path_2576" data-name="Path 2576" d="M828.885,381.169h-27.7a5.943,5.943,0,0,0-5.936,5.936v3.959a7.915,7.915,0,1,0,0,15.831v9.894h15.831v-3.957a3.957,3.957,0,0,1,7.915,0v3.957h9.895a5.943,5.943,0,0,0,5.936-5.936V387.105A5.943,5.943,0,0,0,828.885,381.169Zm1.979,29.683a1.981,1.981,0,0,1-1.979,1.979h-5.937a7.915,7.915,0,1,0-15.831,0H799.2v-9.895h-3.957a3.957,3.957,0,1,1,0-7.915H799.2v-7.916a1.981,1.981,0,0,1,1.979-1.979h27.7a1.981,1.981,0,0,1,1.979,1.979Z" transform="translate(101.324 1370.831)" fill="#1a1a1a"/>
    <path id="Path_2577" data-name="Path 2577" d="M802.413,419.091a7.925,7.925,0,0,0-7.916,7.916h-7.915v-9.895h-3.959a3.957,3.957,0,1,1,0-7.915h3.959v-17.81h-5.305A38.229,38.229,0,0,0,757.069,459.2l7.745,6.339v5.365a5.9,5.9,0,0,0,.436,11.28A5.879,5.879,0,0,0,768.878,490a13.843,13.843,0,0,0,27.491,0,5.881,5.881,0,0,0,3.63-7.815,5.9,5.9,0,0,0,.436-11.28v-5.364l7.745-6.338A38.084,38.084,0,0,0,822.2,429.617v-2.61H810.328A7.924,7.924,0,0,0,802.413,419.091Zm-21.136-23.746h1.347v9.895a7.915,7.915,0,0,0,0,15.831v5.936h-7.915a7.915,7.915,0,1,0-15.831,0H747.1A34.318,34.318,0,0,1,781.277,395.345Zm-21.7,60.8a34.126,34.126,0,0,1-12.542-25.177h15.8v-3.957a3.958,3.958,0,0,1,7.916,0v3.957h11.872v7.916a7.915,7.915,0,0,0,0,15.831v15.831H768.773v-6.875Zm23.05,42.1a9.913,9.913,0,0,1-9.694-7.915h19.389A9.913,9.913,0,0,1,782.624,498.246ZM794.5,486.373H770.751a1.979,1.979,0,0,1,0-3.959H794.5a1.979,1.979,0,0,1,0,3.959Zm3.957-7.916H766.793a1.979,1.979,0,0,1,0-3.957h31.662a1.979,1.979,0,1,1,0,3.957Zm7.219-22.315-9.2,7.526v6.875h-9.894v-19.79h-3.959a3.957,3.957,0,1,1,0-7.915h3.959V430.965h11.872v-3.957a3.958,3.958,0,0,1,7.916,0v3.957h11.846A34.127,34.127,0,0,1,805.673,456.142Z" transform="translate(94.154 1372.486)" fill="#1a1a1a"/>
  </g>
</svg>
