<svg xmlns="http://www.w3.org/2000/svg" width="179.203" height="179.137" viewBox="0 0 179.203 179.137">
    <defs>
        <style>
            .cls-1{fill:#474747}
        </style>
    </defs>
    <g id="box" transform="translate(.001 -.089)">
        <g id="Group_9423" transform="translate(56.747 53.784)">
            <g id="Group_9422">
                <path id="Path_2861" d="M217.6 164.043a2.275 2.275 0 0 0-.111-.269 3.154 3.154 0 0 0-.182-.439 3.012 3.012 0 0 0-.206-.275 2.847 2.847 0 0 0-.26-.337 42.483 42.483 0 0 1-.576-.463L186.4 144.339a2.987 2.987 0 0 0-3.076 0l-29.867 17.92a2.623 2.623 0 0 0-.314.242 3.413 3.413 0 0 0-.281.221 3.144 3.144 0 0 0-.257.335 2.647 2.647 0 0 0-.209.278 3.145 3.145 0 0 0-.179.427 2.993 2.993 0 0 0-.114.284 2.882 2.882 0 0 0-.1.774v29.867a2.987 2.987 0 0 0 1.449 2.56l29.867 17.92.033.015.033.024a2.9 2.9 0 0 0 .49.2c.069.024.134.063.206.084a2.939 2.939 0 0 0 1.553 0c.072-.021.137-.06.206-.084a2.893 2.893 0 0 0 .49-.2l.033-.024.033-.015 29.867-17.92a2.987 2.987 0 0 0 1.449-2.56v-29.868a2.921 2.921 0 0 0-.112-.776zm-32.749-13.661l9.127 5.478-24.058 14.44-9.127-5.478zm-2.987 56.948l-23.894-14.336v-22.9l23.894 14.336zm2.987-28.072l-9.127-5.478 24.061-14.438 9.127 5.478zM211.734 193l-23.894 14.336v-22.9l23.894-14.336z" class="cls-1" transform="translate(-152 -143.913)"/>
            </g>
        </g>
        <g id="Group_9425" transform="translate(78.251 .089)">
            <g id="Group_9424">
                <path id="Path_2862" d="M223.339 1.217a3.094 3.094 0 0 0-4.779 0l-8.96 11.947 4.779 3.584 3.584-4.779v23.894h5.973V11.969l3.584 4.779 4.779-3.584z" class="cls-1" transform="translate(-209.6 -.089)"/>
            </g>
        </g>
        <g id="Group_9427" transform="translate(78.251 143.385)">
            <g id="Group_9426">
                <path id="Path_2863" d="M227.52 403.026l-3.584 4.779v-23.894h-5.973V407.8l-3.584-4.779-4.779 3.589 8.96 11.947a2.987 2.987 0 0 0 4.779 0l8.96-11.947z" class="cls-1" transform="translate(-209.6 -383.911)"/>
            </g>
        </g>
        <g id="Group_9429" transform="translate(86.614 41.836)">
            <g id="Group_9428">
                <path id="Rectangle_1453" d="M0 0H5.973V5.973H0z" class="cls-1"/>
            </g>
        </g>
        <g id="Group_9431" transform="translate(86.614 131.438)">
            <g id="Group_9430">
                <path id="Rectangle_1454" d="M0 0H5.973V5.973H0z" class="cls-1"/>
            </g>
        </g>
        <g id="Group_9433" transform="translate(-.001 78.274)">
            <g id="Group_9432">
                <path id="Path_2864" d="M35.84 217.874H11.946l4.779-3.584-3.584-4.779-11.947 8.96a2.987 2.987 0 0 0 0 4.779l11.947 8.96 3.584-4.779-4.779-3.584H35.84z" class="cls-1" transform="translate(.001 -209.511)"/>
            </g>
        </g>
        <g id="Group_9435" transform="translate(143.362 78.274)">
            <g id="Group_9434">
                <path id="Path_2865" d="M419.243 219.068a3 3 0 0 0-.6-.6l-11.947-8.96-3.584 4.779 4.779 3.584H384v5.973h23.894l-4.779 3.584 3.584 4.779 11.947-8.96a2.987 2.987 0 0 0 .597-4.179z" class="cls-1" transform="translate(-384 -209.511)"/>
            </g>
        </g>
        <g id="Group_9437" transform="translate(41.814 86.637)">
            <g id="Group_9436">
                <path id="Rectangle_1455" d="M0 0H5.973V5.973H0z" class="cls-1"/>
            </g>
        </g>
        <g id="Group_9439" transform="translate(131.415 86.637)">
            <g id="Group_9438">
                <path id="Rectangle_1456" d="M0 0H5.973V5.973H0z" class="cls-1"/>
            </g>
        </g>
        <g id="Group_9441" transform="translate(25.354 25.377)">
            <g id="Group_9440">
                <path id="Path_2866" d="M96.257 91.944L79.364 75.051l5.911.842.845-5.914-14.782-2.123a2.987 2.987 0 0 0-3.393 3.393l2.112 14.781 5.914-.845-.842-5.911 16.892 16.893z" class="cls-1" transform="translate(-67.913 -67.823)"/>
            </g>
        </g>
        <g id="Group_9443" transform="translate(125.504 125.533)">
            <g id="Group_9442">
                <path id="Path_2867" d="M364.473 361.007l-2.112-14.781-5.92.851.842 5.911-16.893-16.893-4.223 4.223 16.893 16.893-5.9-.848-.845 5.914 14.781 2.112a2.939 2.939 0 0 0 .424.03 2.987 2.987 0 0 0 2.987-2.986 2.935 2.935 0 0 0-.034-.426z" class="cls-1" transform="translate(-336.168 -336.095)"/>
            </g>
        </g>
        <g id="Group_9445" transform="translate(53.699 53.723)">
            <g id="Group_9444">
                <path id="Rectangle_1457" d="M0 0H5.973V5.973H0z" class="cls-1" transform="rotate(-45 5.099 2.112)"/>
            </g>
        </g>
        <g id="Group_9447" transform="translate(117.058 117.077)">
            <g id="Group_9446">
                <path id="Rectangle_1458" d="M0 0H5.973V5.973H0z" class="cls-1" transform="rotate(-45 5.099 2.112)"/>
            </g>
        </g>
        <g id="Group_9449" transform="translate(25.356 125.527)">
            <g id="Group_9448">
                <path id="Path_2868" d="M79.355 357.2l16.893-16.9-4.211-4.223-16.893 16.895.842-5.911-5.914-.845L67.949 361a2.987 2.987 0 0 0 2.957 3.411 2.938 2.938 0 0 0 .424-.03l14.781-2.112-.845-5.914z" class="cls-1" transform="translate(-67.918 -336.079)"/>
            </g>
        </g>
        <g id="Group_9451" transform="translate(125.504 25.389)">
            <g id="Group_9450">
                <path id="Path_2869" d="M363.622 68.735a2.957 2.957 0 0 0-2.536-.845L346.3 70l.845 5.914 5.911-.842-16.888 16.893 4.223 4.223L357.284 79.3l-.842 5.9 5.914.851 2.112-14.781a2.985 2.985 0 0 0-.846-2.535z" class="cls-1" transform="translate(-336.168 -67.857)"/>
            </g>
        </g>
        <g id="Group_9453" transform="translate(53.701 117.08)">
            <g id="Group_9452">
                <path id="Rectangle_1459" d="M0 0H5.973V5.973H0z" class="cls-1" transform="rotate(-45 5.099 2.112)"/>
            </g>
        </g>
        <g id="Group_9455" transform="translate(117.058 53.712)">
            <g id="Group_9454">
                <path id="Rectangle_1460" d="M0 0H5.973V5.973H0z" class="cls-1" transform="rotate(-45 5.099 2.112)"/>
            </g>
        </g>
    </g>
</svg>
