<svg xmlns="http://www.w3.org/2000/svg" width="92.251" height="81.461" viewBox="0 0 92.251 81.461">
  <g id="Group_1893" data-name="Group 1893" transform="translate(-88.958 -3137)">
    <g id="Group_1836" data-name="Group 1836" transform="translate(-19318 -6635.676)">
      <path id="Path_2495" data-name="Path 2495" d="M12921.658,8829.121a37.871,37.871,0,0,1-25.919-12.948,42.245,42.245,0,0,1,.83-56.395,37.687,37.687,0,0,1,27.551-12.118,37.107,37.107,0,0,1,14.977,3.178,38.7,38.7,0,0,1,12.574,8.94l-10.771,10.136a23.9,23.9,0,0,0-7.768-5.524,22.328,22.328,0,0,0-9.012-1.9,22.975,22.975,0,0,0-16.778,7.427,27.61,27.61,0,0,0-.541,36.471,23.193,23.193,0,0,0,15.844,7.968Z" transform="translate(6521.597 1025.015)" fill="#e6e6e6"/>
      <path id="Path_2496" data-name="Path 2496" d="M13279.074,9182.387c-.638.2-1.335.393-2.09.569-.521.122-1.233.254-2.117.391a28.864,28.864,0,0,1-22.277-5.91,31.734,31.734,0,0,1-11.705-19.913l-.022,0-.03-.323a31.752,31.752,0,0,1,5.054-22.834,28.859,28.859,0,0,1,19.419-12.384l.031-.006a28.455,28.455,0,0,1,10.479.3,29.549,29.549,0,0,1,9.687,4.1l-8.05,12.394a14.482,14.482,0,0,0-4.794-2.011h-.03a13.623,13.623,0,0,0-5.018-.189l-.018,0a14.153,14.153,0,0,0-9.487,6.136,17.006,17.006,0,0,0-2.727,11.919l.02,0,.027.323a17,17,0,0,0,6.259,10.845,14.183,14.183,0,0,0,10.923,2.958l1.019-.219c.279-.063.612-.162.99-.279Z" transform="translate(6174.813 659.781)" fill="#fff"/>
      <path id="Path_2497" data-name="Path 2497" d="M14573.281,10264.7c0-3.2-5.109-2.676-5.109-4.848,0-1.462,1.444-2,2.612-2a3.254,3.254,0,0,1,1.963.679l.226-.5a3.417,3.417,0,0,0-2.221-.746c-2.238,0-3.163,1.3-3.163,2.578,0,2.772,5.122,2.157,5.122,4.883a2.242,2.242,0,0,1-2.479,2.222,4.657,4.657,0,0,1-2.53-.942l-.341.5a5.213,5.213,0,0,0,2.9,1.008A2.762,2.762,0,0,0,14573.281,10264.7Z" transform="translate(4878.901 -449.339)" fill="#fff"/>
      <path id="Path_2498" data-name="Path 2498" d="M14882.327,10258.05v9.406h.584v-9.406h3.437v-.521h-7.457v.521Zm9.294,9.569a3.292,3.292,0,0,0,3.225-3.293v-6.8h-.583v6.8a2.636,2.636,0,1,1-5.271,0v-6.8h-.582v6.8A3.29,3.29,0,0,0,14891.621,10267.619Zm12.178-5.125c0-2.758-1.849-4.965-3.958-4.965h-2.789v9.927h2.789C14901.966,10267.456,14903.8,10265.251,14903.8,10262.494Zm-.6,0c0,2.466-1.571,4.443-3.355,4.443h-2.2v-8.888h2.2C14901.725,10258.05,14903.2,10260.028,14903.2,10262.494Zm3.506-4.965h-.585v9.927h.585Zm6.438-.16c-2.545,0-4.119,2.367-4.119,5.125s1.477,5.123,4.119,5.123c2.659,0,4.134-2.366,4.134-5.123S14915.7,10257.369,14913.14,10257.369Zm0,.535c2.335,0,3.536,2.141,3.536,4.59s-1.2,4.59-3.536,4.59c-2.319,0-3.519-2.141-3.519-4.59S14910.82,10257.9,14913.14,10257.9Z" transform="translate(4574.651 -449.415)" fill="#fff"/>
      <path id="Path_2499" data-name="Path 2499" d="M16585.836,10264.7c0-3.2-5.109-2.676-5.109-4.848,0-1.462,1.443-2,2.615-2a3.238,3.238,0,0,1,1.959.679l.229-.5a3.411,3.411,0,0,0-2.221-.746c-2.238,0-3.164,1.3-3.164,2.578,0,2.772,5.123,2.157,5.123,4.883a2.242,2.242,0,0,1-2.479,2.222,4.651,4.651,0,0,1-2.529-.942l-.342.5a5.208,5.208,0,0,0,2.9,1.008A2.76,2.76,0,0,0,16585.836,10264.7Z" transform="translate(2913.373 -449.339)" fill="#fff"/>
    </g>
  </g>
</svg>
