<svg xmlns="http://www.w3.org/2000/svg" width="178.234" height="178.238" viewBox="0 0 178.234 178.238">
    <defs>
        <style>
            .cls-1{fill:#474747}
        </style>
    </defs>
    <g id="team" transform="translate(-.008 -.001)">
        <path id="Path_2858" d="M162.077 145.648a14.3 14.3 0 0 0 4.666-10.53v-5.749a14.374 14.374 0 0 0-28.458-2.875h-9.443a8.574 8.574 0 0 0-16.192 0h-9.443A14.419 14.419 0 0 0 92 115.285v-6.449a11.484 11.484 0 0 0 8.624-11.091h2.876a2.872 2.872 0 0 0 2.875-2.875v-8.623h5.749V80.5h-5.749v-.031a19.76 19.76 0 0 1 7.152-14.82A37.353 37.353 0 0 0 87.583.037C68.179.819 52.105 17.264 51.759 36.7a37.273 37.273 0 0 0 12.723 28.738A20.967 20.967 0 0 1 71.847 80.5h-5.72v5.75h5.749v8.624a2.871 2.871 0 0 0 2.875 2.875h2.875a11.482 11.482 0 0 0 8.624 11.091v6.449a14.42 14.42 0 0 0-11.21 11.208H65.6a8.574 8.574 0 0 0-16.192 0h-9.445a14.374 14.374 0 0 0-28.457 2.875v5.749a14.294 14.294 0 0 0 4.664 10.53A25.9 25.9 0 0 0 .008 169.615v5.749a2.871 2.871 0 0 0 2.875 2.875h46a2.872 2.872 0 0 0 2.875-2.875v-5.749a25.9 25.9 0 0 0-16.165-23.967 14.3 14.3 0 0 0 4.666-10.53v-2.875h9.152a8.574 8.574 0 0 0 16.192 0h9.153v2.875a14.294 14.294 0 0 0 4.664 10.53 25.9 25.9 0 0 0-16.163 23.967v5.749a2.871 2.871 0 0 0 2.875 2.875h46a2.872 2.872 0 0 0 2.868-2.875v-5.749a25.9 25.9 0 0 0-16.165-23.967 14.3 14.3 0 0 0 4.666-10.53v-2.875h9.152a8.575 8.575 0 0 0 16.192 0H138v2.875a14.294 14.294 0 0 0 4.664 10.53 25.9 25.9 0 0 0-16.164 23.967v5.749a2.871 2.871 0 0 0 2.875 2.875h46a2.872 2.872 0 0 0 2.875-2.875v-5.749a25.9 25.9 0 0 0-16.165-23.967zM46 169.615v2.875h-5.746v-5.75H34.5v5.749H17.256v-5.749h-5.75v5.749H5.757v-2.875a20.123 20.123 0 0 1 40.246 0zm-28.747-34.5v-5.749a8.624 8.624 0 1 1 17.248 0v5.749a8.624 8.624 0 0 1-17.248 0zm40.247-2.872a2.875 2.875 0 1 1 2.875-2.875 2.875 2.875 0 0 1-2.875 2.875zm10.77-71.13A31.527 31.527 0 0 1 57.508 36.8 32.019 32.019 0 0 1 87.813 5.779a31.6 31.6 0 0 1 21.957 55.509 25.513 25.513 0 0 0-9.146 19.179v.033H77.6a26.7 26.7 0 0 0-9.33-19.387zm32.354 25.134V92h-23v-5.753zm-17.248 11.5h11.5a5.749 5.749 0 1 1-11.5 0zm25.873 71.869v2.875H103.5v-5.75h-5.751v5.75H80.5v-5.75h-5.749v5.75H69v-2.875a20.123 20.123 0 0 1 40.246 0zM80.5 135.118v-5.749a8.624 8.624 0 1 1 17.248 0v5.749a8.624 8.624 0 0 1-17.248 0zm40.246-2.875a2.875 2.875 0 1 1 2.875-2.875 2.875 2.875 0 0 1-2.874 2.875zm23 2.875v-5.749a8.624 8.624 0 1 1 17.248 0v5.749a8.624 8.624 0 0 1-17.248 0zm28.747 37.372h-5.75v-5.75h-5.749v5.75h-17.249v-5.75H138v5.75h-5.749v-2.875a20.123 20.123 0 1 1 40.246 0zm0 0" class="cls-1"/>
        <path id="Path_2859" d="M232.008 192.012h11.5v5.749h-11.5zm0 0" class="cls-1" transform="translate(-148.633 -123.013)"/>
        <path id="Path_2860" d="M209.257 82.218v6.04h5.749v-6.04a14.252 14.252 0 0 0 5.039-2.1l4.427 4.427 4.064-4.065-4.426-4.427a14.293 14.293 0 0 0 2.1-5.039h6.04V65.26h-6.04a14.293 14.293 0 0 0-2.1-5.039l4.426-4.427-4.064-4.065-4.427 4.427a14.253 14.253 0 0 0-5.039-2.1v-6.04h-5.749v6.04a14.259 14.259 0 0 0-5.041 2.1l-4.427-4.427-4.064 4.065 4.427 4.427a14.27 14.27 0 0 0-2.106 5.039h-6.039v5.75h6.039a14.27 14.27 0 0 0 2.106 5.039l-4.427 4.427 4.064 4.065 4.427-4.427a14.259 14.259 0 0 0 5.041 2.104zm2.875-22.707a8.624 8.624 0 1 1-8.624 8.624 8.635 8.635 0 0 1 8.623-8.624zm0 0" class="cls-1" transform="translate(-123.006 -30.758)"/>
    </g>
</svg>
