<svg xmlns="http://www.w3.org/2000/svg" width="151.145" height="63.137" viewBox="0 0 151.145 63.137">
  <g id="Group_1888" data-name="Group 1888" transform="translate(-385.733 -155.955)">
    <path id="Path_2716" data-name="Path 2716" d="M557.2,226.094H546.824V200.532h3.8v21.715h6.58Zm-20.415-19.706-1.392,10.088h2.826Zm-1.982,13.85-.928,5.9h-3.965l4.26-25.563H539.4l4.218,25.563h-3.965l-.886-5.9Zm-12.316-15.859h-4.049v-3.847H530.29v3.847h-4.007v21.715h-3.8Zm-15.944-3.847,5.019,17.184V200.532h3.8v25.562h-4.091l-5.231-16.372v16.372h-3.8V200.532Zm-17.716,25.562V200.532h10.8v3.847h-7v7.011h5.146v3.847h-5.146v7.011h7v3.847Zm-11.474-3.8h2.278a1.89,1.89,0,0,0,1.519-.684,2.207,2.207,0,0,0,.632-1.581V206.645a2.285,2.285,0,0,0-.632-1.582,2.057,2.057,0,0,0-1.519-.641h-2.278Zm8.141-2.308a5.95,5.95,0,0,1-1.772,4.318,5.7,5.7,0,0,1-4.218,1.795h-5.989V200.532h5.989a5.632,5.632,0,0,1,4.218,1.795,5.911,5.911,0,0,1,1.73,4.318v13.336Zm33.28-25.263V169.156h10.8V173h-7v7.053h5.146V183.9h-5.146v7.01h7v3.847h-10.8Zm-3.164,0h-4.09l-2.911-8.164-2.91,8.164h-4.091l4.935-12.866-4.935-12.7h4.218l2.826,7.865,2.784-7.865h4.219l-4.935,12.7Zm-23.156.342a5.728,5.728,0,0,1-4.261-1.8,5.855,5.855,0,0,1-1.772-4.274V169.2h3.712V188.99a2.113,2.113,0,0,0,.633,1.538,2.218,2.218,0,0,0,3.121,0,2.112,2.112,0,0,0,.632-1.538V169.2h3.965V188.99a5.812,5.812,0,0,1-1.772,4.317A5.922,5.922,0,0,1,492.455,195.06ZM525.9,163.085l-3.164,4.575h2.151L530.5,163Zm-42.095,31.632H473.432V169.156h3.8v21.715h6.581Z" transform="translate(-20.323 -7.045)" fill="#2c2c2c"/>
    <path id="Path_2717" data-name="Path 2717" d="M403.015,182.867s-.886-9.789,11.009-13.209h33.533A14.352,14.352,0,0,1,458.4,180.516l.211,18.766s-.886,21.544-22.946,26.2c0,0-19.74,5.086-30.538-17.1,0,0-2.066-6.028-2.066-10.644Z" transform="translate(-17.267 -7.334)" fill="#a7a7a7"/>
    <path id="Path_2718" data-name="Path 2718" d="M417.258,213.2l3.374-3.42s9.659,10.43,21.639.3l3.29,3.505S432.653,226.712,417.258,213.2Z" transform="translate(-17.886 -9.075)" fill="none" stroke="#fff" stroke-miterlimit="10" stroke-width="1"/>
  </g>
</svg>
