<svg xmlns="http://www.w3.org/2000/svg" width="198.019" height="41.134" viewBox="0 0 198.019 41.134">
  <g id="Group_1892" data-name="Group 1892" transform="translate(-5 -0.983)">
    <path id="Path_2654" data-name="Path 2654" d="M58.008,3.914V40.633" transform="translate(-2.3 -0.143)" fill="none" stroke="#2c2c2c" stroke-miterlimit="2.613" stroke-width="0.5"/>
    <path id="Path_2655" data-name="Path 2655" d="M80.343,4.734a11.3,11.3,0,0,1,8.386,3.6,12.068,12.068,0,0,1,3.513,8.761,11.906,11.906,0,0,1-3.467,8.667,11.862,11.862,0,0,1-17.014-.094,12.2,12.2,0,0,1-3.433-8.644,12.257,12.257,0,0,1,1.6-6.173,11.9,11.9,0,0,1,4.389-4.462A11.7,11.7,0,0,1,80.343,4.734ZM80.285,9.1a7.089,7.089,0,0,0-5.345,2.26A7.916,7.916,0,0,0,72.775,17.1,7.548,7.548,0,0,0,75.5,23.24a7.351,7.351,0,0,0,4.861,1.769,7,7,0,0,0,5.276-2.3,7.835,7.835,0,0,0,2.189-5.645,7.882,7.882,0,0,0-2.2-5.657A7.118,7.118,0,0,0,80.285,9.1ZM95.963,4.734h4.262V18.543l6.3-7.133h5.323l-7.292,8.257,8.2,9.042h-5.3l-7.246-7.976v7.976H95.952V4.734Zm19.053.293h4.263V11.41h2.534v3.748h-2.534V28.709h-4.263V15.158h-2.177V11.41h2.177Zm17.095,5.962a9.012,9.012,0,0,1,4.539,1.218,8.829,8.829,0,0,1,3.318,3.315,9.009,9.009,0,0,1,1.186,4.521,9.193,9.193,0,0,1-1.2,4.568,8.737,8.737,0,0,1-3.272,3.326,8.977,8.977,0,0,1-4.562,1.195,8.437,8.437,0,0,1-6.255-2.635,8.836,8.836,0,0,1-2.591-6.418,8.824,8.824,0,0,1,2.926-6.746A8.563,8.563,0,0,1,132.111,10.988Zm.069,4.076a4.383,4.383,0,0,0-3.318,1.405,5.059,5.059,0,0,0-1.324,3.6,5.089,5.089,0,0,0,1.312,3.643,4.646,4.646,0,0,0,6.659-.023,5.076,5.076,0,0,0,1.324-3.631,5.022,5.022,0,0,0-1.312-3.607A4.369,4.369,0,0,0,132.18,15.064Zm10.713,9.265,1.959-1.195q2.073,3.883,4.769,3.877a4.559,4.559,0,0,0,2.177-.551,3.721,3.721,0,0,0,1.543-1.476,3.8,3.8,0,0,0,.53-1.956,4.056,4.056,0,0,0-.783-2.307,18.654,18.654,0,0,0-3.951-3.748,19.907,19.907,0,0,1-3.583-3.2,5.872,5.872,0,0,1-1.221-3.572,5.425,5.425,0,0,1,.725-2.776,5.312,5.312,0,0,1,2.04-1.979,5.813,5.813,0,0,1,2.845-.726,5.943,5.943,0,0,1,3.053.82A10.469,10.469,0,0,1,156,8.552L154.125,10A9.234,9.234,0,0,0,151.9,7.7a3.759,3.759,0,0,0-2-.562,3.216,3.216,0,0,0-2.292.855,2.844,2.844,0,0,0-.888,2.12,3.7,3.7,0,0,0,.311,1.476,5.243,5.243,0,0,0,1.153,1.558c.3.293,1.3,1.078,2.983,2.331a17.07,17.07,0,0,1,4.112,3.994,6.567,6.567,0,0,1,1.117,3.514,5.982,5.982,0,0,1-1.9,4.416,6.334,6.334,0,0,1-4.631,1.874,6.667,6.667,0,0,1-3.8-1.136A9.97,9.97,0,0,1,142.893,24.329Zm32.335-1.359,1.843.984a10.348,10.348,0,0,1-2.108,2.9,8.287,8.287,0,0,1-2.684,1.687,9.285,9.285,0,0,1-3.375.574,8.124,8.124,0,0,1-6.532-2.764,9.429,9.429,0,0,1-2.349-6.254,9.317,9.317,0,0,1,1.993-5.856,8.11,8.11,0,0,1,6.762-3.268,8.35,8.35,0,0,1,6.969,3.35,9.426,9.426,0,0,1,1.889,5.9H162.269a7.071,7.071,0,0,0,1.9,4.919,6.061,6.061,0,0,0,4.538,1.921,7.306,7.306,0,0,0,2.547-.457,6.706,6.706,0,0,0,2.1-1.206A9.89,9.89,0,0,0,175.229,22.97Zm.023-4.65a7.521,7.521,0,0,0-1.279-2.846,6.066,6.066,0,0,0-2.235-1.71,6.8,6.8,0,0,0-2.914-.656,6.2,6.2,0,0,0-4.332,1.64,7.485,7.485,0,0,0-2,3.572Zm5.6-6.91H183.1v2.53a7.793,7.793,0,0,1,2.119-2.225,4.217,4.217,0,0,1,2.316-.726,4.02,4.02,0,0,1,1.947.586l-1.14,1.862a3.049,3.049,0,0,0-1.164-.3,3.148,3.148,0,0,0-2.119.914A5.821,5.821,0,0,0,183.5,16.88a27.325,27.325,0,0,0-.4,5.973V28.7H180.85Zm8.871,0h2.292l5.725,12.626,5.691-12.626h2.338l-7.787,17.3h-.415Z" transform="translate(-2.748 -0.178)" fill="#2c2c2c" fill-rule="evenodd"/>
    <path id="Path_2656" data-name="Path 2656" d="M68.726,40.755V34.418H69.7a4.665,4.665,0,0,1,1.256.117,1.754,1.754,0,0,1,.9.562,1.5,1.5,0,0,1,.334.972,1.373,1.373,0,0,1-.15.656,1.649,1.649,0,0,1-.484.551,1.909,1.909,0,0,1,.829.679,1.762,1.762,0,0,1,.265.96,1.8,1.8,0,0,1-.276.972,1.725,1.725,0,0,1-.7.656,2.719,2.719,0,0,1-1.186.223H68.726Zm1.187-5.189v1.347h.265a.941.941,0,0,0,.657-.187.66.66,0,0,0,.219-.5.578.578,0,0,0-.207-.468.943.943,0,0,0-.622-.176h-.311Zm0,2.424v1.628h.3a1.862,1.862,0,0,0,1.014-.187.655.655,0,0,0,.265-.55.762.762,0,0,0-.311-.644A1.731,1.731,0,0,0,70.166,38h-.253Zm7.545-3.572h1.186v4.1a2.218,2.218,0,0,0,.092.75.734.734,0,0,0,.3.351.989.989,0,0,0,.507.129.921.921,0,0,0,.541-.152.749.749,0,0,0,.311-.375,2.768,2.768,0,0,0,.092-.867V34.407h1.186V38.19a5.6,5.6,0,0,1-.1,1.323,1.949,1.949,0,0,1-.4.714,1.857,1.857,0,0,1-.691.515,2.388,2.388,0,0,1-.91.164,2.155,2.155,0,0,1-1.175-.316,1.8,1.8,0,0,1-.714-.8,4.349,4.349,0,0,1-.219-1.6Zm12.614.867-.875.785c-.311-.433-.622-.656-.945-.656a.554.554,0,0,0-.38.129.348.348,0,0,0-.15.281.511.511,0,0,0,.1.3,7.284,7.284,0,0,0,.875.808c.449.386.726.633.829.726a2.322,2.322,0,0,1,.507.7,1.723,1.723,0,0,1,.15.738,1.7,1.7,0,0,1-.53,1.288,1.92,1.92,0,0,1-1.382.5,2.029,2.029,0,0,1-1.163-.328,2.692,2.692,0,0,1-.852-1.042l1-.609q.449.843,1.037.843a.774.774,0,0,0,.518-.176.535.535,0,0,0,.207-.422.75.75,0,0,0-.161-.433,4.5,4.5,0,0,0-.691-.656,6.943,6.943,0,0,1-1.313-1.3,1.687,1.687,0,0,1-.3-.914,1.457,1.457,0,0,1,.5-1.124,1.7,1.7,0,0,1,1.221-.469,1.815,1.815,0,0,1,.887.223A3.288,3.288,0,0,1,90.071,35.285Zm4.884-.867h1.186v6.337H94.955Zm6.255,0h1.129l2.684,4.17v-4.17h1.186v6.337h-1.129L102.408,36.6v4.158h-1.186V34.418Zm10.16,0h3.4V35.6h-2.223v1.136h2.223v1.171h-2.223v1.663h2.223v1.183h-3.409V34.418Zm11.508.867L122,36.07c-.311-.433-.622-.656-.944-.656a.552.552,0,0,0-.38.129.347.347,0,0,0-.15.281.513.513,0,0,0,.1.3,7.358,7.358,0,0,0,.876.808c.449.386.725.633.829.726a2.328,2.328,0,0,1,.506.7,1.85,1.85,0,0,1-.38,2.026,1.919,1.919,0,0,1-1.382.5,2.027,2.027,0,0,1-1.163-.328,2.694,2.694,0,0,1-.852-1.042l1-.609q.449.843,1.037.843a.775.775,0,0,0,.518-.176.537.537,0,0,0,.208-.422.746.746,0,0,0-.162-.433,4.484,4.484,0,0,0-.691-.656,6.938,6.938,0,0,1-1.313-1.3,1.685,1.685,0,0,1-.3-.914,1.454,1.454,0,0,1,.5-1.124,1.7,1.7,0,0,1,1.221-.469,1.814,1.814,0,0,1,.887.223A3.3,3.3,0,0,1,122.879,35.285Zm8.248,0-.876.785c-.311-.433-.622-.656-.944-.656a.552.552,0,0,0-.38.129.347.347,0,0,0-.15.281.513.513,0,0,0,.1.3,7.36,7.36,0,0,0,.876.808c.449.386.725.633.829.726a2.328,2.328,0,0,1,.506.7,1.85,1.85,0,0,1-.38,2.026,1.919,1.919,0,0,1-1.382.5,2.027,2.027,0,0,1-1.163-.328,2.694,2.694,0,0,1-.852-1.042l1-.609q.449.843,1.037.843a.775.775,0,0,0,.518-.176.537.537,0,0,0,.208-.422.746.746,0,0,0-.162-.433,4.485,4.485,0,0,0-.691-.656,6.938,6.938,0,0,1-1.313-1.3,1.685,1.685,0,0,1-.3-.914,1.454,1.454,0,0,1,.5-1.124,1.7,1.7,0,0,1,1.221-.469,1.814,1.814,0,0,1,.887.223A3.3,3.3,0,0,1,131.127,35.285Zm13.108,0-.875.785c-.311-.433-.622-.656-.944-.656a.556.556,0,0,0-.381.129.348.348,0,0,0-.149.281.513.513,0,0,0,.1.3,7.235,7.235,0,0,0,.875.808c.45.386.726.633.829.726a2.316,2.316,0,0,1,.507.7,1.729,1.729,0,0,1,.15.738,1.7,1.7,0,0,1-.53,1.288,1.921,1.921,0,0,1-1.382.5,2.032,2.032,0,0,1-1.164-.328,2.7,2.7,0,0,1-.852-1.042l1-.609q.449.843,1.037.843a.775.775,0,0,0,.518-.176.536.536,0,0,0,.207-.422.751.751,0,0,0-.161-.433,4.506,4.506,0,0,0-.692-.656,6.925,6.925,0,0,1-1.312-1.3,1.686,1.686,0,0,1-.3-.914,1.457,1.457,0,0,1,.5-1.124,1.7,1.7,0,0,1,1.222-.469,1.814,1.814,0,0,1,.887.223A3.284,3.284,0,0,1,144.235,35.285Zm4.976-.867h3.41V35.6H150.4v1.136h2.223v1.171H150.4v1.663h2.223v1.183h-3.41Zm8.318,0h1.255a4,4,0,0,1,1.474.187,1.516,1.516,0,0,1,.7.621,1.98,1.98,0,0,1,.265,1.031,1.649,1.649,0,0,1-1.186,1.675l1.474,2.823h-1.3l-1.405-2.682h-.115v2.682h-1.187V34.418Zm1.186,2.483h.38a1.388,1.388,0,0,0,.783-.152.593.593,0,0,0,.219-.5.64.64,0,0,0-.1-.363.56.56,0,0,0-.289-.223,2.02,2.02,0,0,0-.656-.07h-.334Zm7.026-2.483h1.222l1.567,4.5,1.6-4.5h1.222l-2.246,6.337h-1.141Zm10.207,0h1.186v6.337h-1.186Zm11.98,1.113-.829.808a2.548,2.548,0,0,0-1.912-.914,2.1,2.1,0,0,0-2.12,2.155,2.262,2.262,0,0,0,.276,1.124,1.98,1.98,0,0,0,.772.773,2.222,2.222,0,0,0,1.106.281,2.279,2.279,0,0,0,.945-.2,3.484,3.484,0,0,0,.944-.714l.806.855a4.468,4.468,0,0,1-1.3.949,3.543,3.543,0,0,1-1.405.269,3.185,3.185,0,0,1-3.306-3.338,3.273,3.273,0,0,1,.427-1.687,3.044,3.044,0,0,1,1.209-1.183,3.274,3.274,0,0,1,1.693-.445,3.442,3.442,0,0,1,1.487.328A3.727,3.727,0,0,1,187.929,35.531Zm4.78-1.113h3.41V35.6H193.9v1.136h2.223v1.171H193.9v1.663h2.223v1.183h-3.41Zm11.508.867-.875.785c-.311-.433-.622-.656-.944-.656a.556.556,0,0,0-.381.129.348.348,0,0,0-.149.281.513.513,0,0,0,.1.3,7.315,7.315,0,0,0,.875.808c.45.386.726.633.829.726a2.316,2.316,0,0,1,.507.7,1.85,1.85,0,0,1-.38,2.026,1.921,1.921,0,0,1-1.382.5,2.027,2.027,0,0,1-1.163-.328,2.687,2.687,0,0,1-.853-1.042l1-.609q.449.843,1.037.843a.775.775,0,0,0,.518-.176.536.536,0,0,0,.207-.422.751.751,0,0,0-.161-.433,4.459,4.459,0,0,0-.692-.656,6.924,6.924,0,0,1-1.312-1.3,1.685,1.685,0,0,1-.3-.914,1.456,1.456,0,0,1,.495-1.124,1.7,1.7,0,0,1,1.222-.469,1.814,1.814,0,0,1,.887.223A3.284,3.284,0,0,1,204.217,35.285Z" transform="translate(-2.765 -1.46)" fill="#2c2c2c" fill-rule="evenodd"/>
    <path id="Path_2657" data-name="Path 2657" d="M27.5,1A17.108,17.108,0,0,1,43.977,18.229,17.1,17.1,0,0,1,27.02,35.47a16.578,16.578,0,0,1-5.253-.843C6.7,24.109,10.04,8.508,24.613,1.164q.449-.07.9-.105c-6.036,4.357-9.1,10.951-8.317,17.346a10.2,10.2,0,0,0,1.014,3.982.81.81,0,0,0,.046.117l-.011-.047a9.812,9.812,0,0,0,8.778,5.481,10,10,0,0,0,0-20.005,9.817,9.817,0,0,0-8.755,5.435C19.463,8.637,22.585,4.373,27.5,1ZM19.659,2.7a16.984,16.984,0,0,0-2.972,1.862c.058-.539.323-.855.265-.949-.115-.176-.829.082-1.59.574s-1.29,1.054-1.175,1.23c.081.129.749-.059,1.152.293A17.748,17.748,0,0,0,12.7,8.953c-.472-.75-.311-1.441-.449-1.511-.23-.129-.841.6-1.371,1.6s-.76,1.933-.53,2.05c.161.082.749-.492,1.394-.4a17.248,17.248,0,0,0-1.475,4.732c-.852-.433-1.025-1.183-1.2-1.183-.265,0-.472.925-.472,2.073s.207,2.073.472,2.073c.173,0,.426-.75.991-1-.011.269-.023.551-.023.82A17.249,17.249,0,0,0,20.754,34.252c-8.006-4.591-13.777-16.62-5.921-26.7a20.2,20.2,0,0,1,1.855-2.061l.115-.059-.011-.047A28.1,28.1,0,0,1,19.9,2.8l.012-.012.011-.012.011-.012.012-.012.011-.012.012-.012.011-.012h.011L20,2.71l.011-.012.012-.012.011-.012.012-.012.011-.012.011-.012h.012l.011-.012.012-.012L20.12,2.6l.012-.012.011-.012.011-.012.012-.012.011-.012.023-.012.011-.012.15-.105.011-.012.012-.012.011-.012.012-.012.011-.012.011-.012h.012l.011-.012.012-.012.011-.012.012-.012.011-.012.011-.012.012-.012a3.77,3.77,0,0,1,.357-.234c-.1.047-.207.082-.311.129.012-.469.3-.7.265-.773-.058-.117-.507-.023-1,.223s-.852.527-.806.644C19,2.476,19.44,2.417,19.659,2.7Zm.6-.925c-.023-.047-.219-.012-.438.094s-.38.234-.357.281.219.012.438-.094S20.281,1.82,20.258,1.773ZM16.18,4.127c-.046-.082-.357.035-.691.258s-.564.457-.518.539.357-.035.691-.258S16.226,4.2,16.18,4.127ZM11.734,8.473c-.1-.059-.369.258-.6.7s-.334.843-.23.9.369-.258.6-.7S11.837,8.531,11.734,8.473ZM9.1,15.418c-.115,0-.207.41-.207.9s.092.9.207.9.207-.41.207-.9S9.211,15.418,9.1,15.418Zm32.4-1.16c.795,7.074-1,10.694-5.633,15.73A13.349,13.349,0,0,0,42.2,18.58,13.633,13.633,0,0,0,41.5,14.259Z" transform="translate(-0.156 -0.017)" fill="#2c2c2c" fill-rule="evenodd"/>
    <path id="Path_2658" data-name="Path 2658" d="M7.027,39.641a1.989,1.989,0,0,1,1.474.6,2.032,2.032,0,0,1,.6,1.476,2.061,2.061,0,0,1-.588,1.476,1.965,1.965,0,0,1-1.451.609A2.043,2.043,0,0,1,5,41.749,2.233,2.233,0,0,1,5.265,40.7,2.018,2.018,0,0,1,6,39.934,1.825,1.825,0,0,1,7.027,39.641Zm.012.375a1.682,1.682,0,0,0-.818.223,1.588,1.588,0,0,0-.6.609,1.7,1.7,0,0,0-.219.867A1.6,1.6,0,0,0,5.887,42.9a1.543,1.543,0,0,0,1.152.48,1.646,1.646,0,0,0,.841-.223,1.589,1.589,0,0,0,.6-.609,1.777,1.777,0,0,0,.219-.855,1.656,1.656,0,0,0-.219-.855,1.541,1.541,0,0,0-.611-.609A1.817,1.817,0,0,0,7.039,40.016Zm2.834-.281h.392v1.476l1.555-1.476h.518L10.46,41.5l2.016,2.178h-.518l-1.7-1.839v1.839H9.861V39.735Zm4.792,0,1.809,3.947h-.415l-.611-1.3H13.766l-.6,1.3H12.73l1.832-3.947Zm-.046.832-.668,1.441h1.336Zm2.154-.832h.449l1,1.651.991-1.651h.438L18.42,41.8v1.886h-.392V41.8ZM20.62,43.1a.339.339,0,0,1,.23.094.344.344,0,0,1,0,.468.293.293,0,0,1-.23.094.339.339,0,0,1-.23-.094.351.351,0,0,1-.092-.234.33.33,0,0,1,.092-.234A.309.309,0,0,1,20.62,43.1Zm.772-2.975v-.386h2.131v.386h-.864v3.561h-.392V40.121Zm4.539-.48a1.989,1.989,0,0,1,1.475.6,2.032,2.032,0,0,1,.6,1.476,2.061,2.061,0,0,1-.587,1.476,1.965,1.965,0,0,1-1.451.609,2.043,2.043,0,0,1-2.062-2.05,2.234,2.234,0,0,1,.265-1.054,2.018,2.018,0,0,1,.737-.761A1.825,1.825,0,0,1,25.931,39.641Zm.023.375a1.681,1.681,0,0,0-.818.223,1.588,1.588,0,0,0-.6.609,1.7,1.7,0,0,0-.219.867A1.6,1.6,0,0,0,24.8,42.9a1.543,1.543,0,0,0,1.152.48,1.646,1.646,0,0,0,.841-.223,1.588,1.588,0,0,0,.6-.609,1.777,1.777,0,0,0,.219-.855,1.656,1.656,0,0,0-.219-.855,1.541,1.541,0,0,0-.611-.609A1.894,1.894,0,0,0,25.954,40.016Zm3.179,3.08a.34.34,0,0,1,.23.094.344.344,0,0,1,0,.468.293.293,0,0,1-.23.094.339.339,0,0,1-.23-.094.351.351,0,0,1-.092-.234.33.33,0,0,1,.092-.234A.278.278,0,0,1,29.133,43.1Zm.749-.152.334-.2c.23.433.507.656.806.656a.821.821,0,0,0,.369-.094.606.606,0,0,0,.265-.246.671.671,0,0,0,.092-.328.662.662,0,0,0-.138-.387,3.312,3.312,0,0,0-.668-.632,3.8,3.8,0,0,1-.611-.539,1,1,0,0,1-.207-.609.919.919,0,0,1,.127-.469.786.786,0,0,1,.346-.328.986.986,0,0,1,.484-.117,1.015,1.015,0,0,1,.518.141,1.7,1.7,0,0,1,.507.5l-.323.246a1.454,1.454,0,0,0-.38-.386.685.685,0,0,0-.334-.094.555.555,0,0,0-.392.141.457.457,0,0,0-.15.363.639.639,0,0,0,.058.246.9.9,0,0,0,.2.258c.046.047.219.176.507.4a2.977,2.977,0,0,1,.691.679,1.1,1.1,0,0,1,.184.6,1.013,1.013,0,0,1-.323.75,1.077,1.077,0,0,1-.783.316,1.127,1.127,0,0,1-.645-.187A2.185,2.185,0,0,1,29.882,42.944Zm3.1-3.209H35.2v.386H33.372v1.242h1.82v.386h-1.82v1.558h1.82v.387H32.981Zm2.914,0h.772a4.547,4.547,0,0,1,.875.059,1.045,1.045,0,0,1,.564.34.979.979,0,0,1,.219.656.99.99,0,0,1-.576.937,1.923,1.923,0,0,1-.772.129l1.394,1.839H37.9l-1.394-1.839h-.219v1.839H35.9Zm.392.386v1.347h.668a1.735,1.735,0,0,0,.576-.07.543.543,0,0,0,.288-.246.677.677,0,0,0,.1-.375.665.665,0,0,0-.1-.363.6.6,0,0,0-.276-.234,1.692,1.692,0,0,0-.576-.07h-.68Zm2.58-.386h.426l1.29,3.057L41.9,39.735h.426L40.63,43.682h-.092Zm4.1,0h2.223v.386H43.36v1.242h1.82v.386H43.36v1.558h1.82v.387H42.968ZM46.205,43.1a.34.34,0,0,1,.23.094.344.344,0,0,1,0,.468.293.293,0,0,1-.23.094.339.339,0,0,1-.23-.094.351.351,0,0,1-.092-.234.33.33,0,0,1,.092-.234A.293.293,0,0,1,46.205,43.1Z" transform="translate(0 -1.693)" fill="#2c2c2c" fill-rule="evenodd"/>
  </g>
</svg>
