<svg xmlns="http://www.w3.org/2000/svg" xmlns:xlink="http://www.w3.org/1999/xlink" width="1440" height="780" viewBox="0 0 1440 780">
  <defs>
    <clipPath id="clip-path">
      <rect id="Rectangle_1303" data-name="Rectangle 1303" width="1440" height="786" transform="translate(0.285 -2)" fill="#ffe400" opacity="0.45"/>
    </clipPath>
    <clipPath id="clip-path-2">
      <rect id="Rectangle_1309" data-name="Rectangle 1309" width="1440" height="786" transform="translate(0.285 -2)" fill="#ffe400"/>
    </clipPath>
    <clipPath id="clip-Pattern_1">
      <rect width="1440" height="780"/>
    </clipPath>
  </defs>
  <g id="Pattern_1" data-name="Pattern 1" clip-path="url(#clip-Pattern_1)">
    <rect width="1440" height="780" fill="#fff"/>
    <rect id="Rectangle_1271" data-name="Rectangle 1271" width="1440" height="786" transform="translate(0.285 -2)" fill="#ffe400"/>
    <g id="Mask_Group_1" data-name="Mask Group 1" clip-path="url(#clip-path)">
      <g id="Group_1864" data-name="Group 1864" transform="translate(755.024 102)" opacity="0.45">
        <path id="Path_2502" data-name="Path 2502" d="M102.494,230.022c-29-1.944-54.741-15.65-73.188-36.568A119.279,119.279,0,0,1,31.651,34.219C51.511,13.078,79.015,0,109.444,0a104.719,104.719,0,0,1,42.288,8.974,109.261,109.261,0,0,1,35.507,25.245L156.823,62.842a67.452,67.452,0,0,0-21.938-15.6,62.972,62.972,0,0,0-25.442-5.374c-18.448,0-35.206,8.018-47.378,20.976a76.108,76.108,0,0,0-20.2,52.306,76.361,76.361,0,0,0,18.674,50.668c11.366,12.881,27.105,21.323,44.734,22.5Z" transform="translate(127.776 380.919) rotate(24)" fill="#fff"/>
        <path id="Path_2729" data-name="Path 2729" d="M102.494,230.023c-29-1.944-54.741-15.65-73.188-36.568A119.281,119.281,0,0,1,31.651,34.219C51.511,13.078,79.016,0,109.444,0a104.719,104.719,0,0,1,42.288,8.974,109.261,109.261,0,0,1,35.507,25.245L156.823,62.842a67.452,67.452,0,0,0-21.938-15.6,62.972,62.972,0,0,0-25.442-5.374c-18.448,0-35.206,8.018-47.378,20.976a76.108,76.108,0,0,0-20.2,52.306,76.365,76.365,0,0,0,18.674,50.669c11.366,12.881,27.105,21.323,44.734,22.5Z" transform="matrix(-0.485, -0.875, 0.875, -0.485, 958.786, 456.454)" fill="#fff"/>
        <path id="Path_2725" data-name="Path 2725" d="M102.494,230.023c-29-1.944-54.741-15.65-73.188-36.568A119.281,119.281,0,0,1,31.651,34.219C51.511,13.078,79.016,0,109.444,0a104.719,104.719,0,0,1,42.288,8.974,109.261,109.261,0,0,1,35.507,25.245L156.823,62.842a67.452,67.452,0,0,0-21.938-15.6,62.972,62.972,0,0,0-25.442-5.374c-18.448,0-35.206,8.018-47.378,20.976a76.108,76.108,0,0,0-20.2,52.306,76.365,76.365,0,0,0,18.674,50.669c11.366,12.881,27.105,21.323,44.734,22.5Z" transform="matrix(-0.485, -0.875, 0.875, -0.485, 979.333, 804.172)" fill="#fff"/>
        <path id="Path_2720" data-name="Path 2720" d="M102.494,0c-29,1.944-54.741,15.649-73.188,36.567A119.279,119.279,0,0,0,31.651,195.8c19.861,21.141,47.365,34.22,77.794,34.22a104.718,104.718,0,0,0,42.288-8.974A109.258,109.258,0,0,0,187.239,195.8L156.823,167.18a67.453,67.453,0,0,1-21.938,15.6,62.973,62.973,0,0,1-25.442,5.374c-18.448,0-35.206-8.018-47.377-20.977a76.108,76.108,0,0,1-20.2-52.306A76.361,76.361,0,0,1,60.543,64.205c11.366-12.88,27.105-21.322,44.734-22.5Z" transform="matrix(-0.485, 0.875, -0.875, -0.485, 628.243, 641.116)" fill="#fff"/>
        <path id="Path_2731" data-name="Path 2731" d="M102.494,0c-29,1.944-54.741,15.649-73.188,36.567A119.28,119.28,0,0,0,31.651,195.8c19.861,21.141,47.365,34.22,77.794,34.22a104.718,104.718,0,0,0,42.288-8.974A109.258,109.258,0,0,0,187.239,195.8L156.823,167.18a67.452,67.452,0,0,1-21.938,15.6,62.972,62.972,0,0,1-25.442,5.374c-18.448,0-35.206-8.018-47.378-20.977a76.108,76.108,0,0,1-20.2-52.306A76.361,76.361,0,0,1,60.543,64.205c11.366-12.88,27.105-21.322,44.734-22.5Z" transform="matrix(0.485, -0.875, 0.875, 0.485, 492.268, 163.763)" fill="#fff"/>
        <path id="Path_2722" data-name="Path 2722" d="M102.494,0c-29,1.944-54.741,15.649-73.188,36.567A119.279,119.279,0,0,0,31.651,195.8c19.861,21.141,47.365,34.22,77.794,34.22a104.718,104.718,0,0,0,42.288-8.974A109.258,109.258,0,0,0,187.239,195.8L156.823,167.18a67.453,67.453,0,0,1-21.938,15.6,62.973,62.973,0,0,1-25.442,5.374c-18.448,0-35.206-8.018-47.377-20.977a76.108,76.108,0,0,1-20.2-52.306A76.361,76.361,0,0,1,60.543,64.205c11.366-12.88,27.105-21.322,44.734-22.5Z" transform="translate(687.162 357.307) rotate(133)" fill="#fff"/>
        <path id="Path_2728" data-name="Path 2728" d="M102.494,0c-29,1.944-54.741,15.649-73.188,36.567A119.28,119.28,0,0,0,31.651,195.8c19.861,21.141,47.365,34.22,77.794,34.22a104.718,104.718,0,0,0,42.288-8.974A109.258,109.258,0,0,0,187.239,195.8L156.823,167.18a67.452,67.452,0,0,1-21.938,15.6,62.972,62.972,0,0,1-25.442,5.374c-18.448,0-35.206-8.018-47.378-20.977a76.108,76.108,0,0,1-20.2-52.306A76.361,76.361,0,0,1,60.543,64.205c11.366-12.88,27.105-21.322,44.734-22.5Z" transform="matrix(0.485, -0.875, 0.875, 0.485, 482.333, 511.663)" fill="#fff"/>
        <path id="Path_2503" data-name="Path 2503" d="M109.087,171.544c-1.8.569-3.768,1.113-5.9,1.609-1.472.343-3.478.719-5.981,1.109a81.5,81.5,0,0,1-62.9-16.7A89.62,89.62,0,0,1,1.249,101.337l-.06.015-.086-.916A89.676,89.676,0,0,1,15.372,35.96,81.543,81.543,0,0,1,70.208.99L70.3.975a80.2,80.2,0,0,1,29.58.865A83.183,83.183,0,0,1,127.236,13.4L104.5,48.4a40.858,40.858,0,0,0-13.534-5.68h-.084a38.623,38.623,0,0,0-14.169-.54l-.049.011a39.948,39.948,0,0,0-26.79,17.325,47.97,47.97,0,0,0-7.7,33.653l.051-.011.084.912a47.957,47.957,0,0,0,17.66,30.622,40.05,40.05,0,0,0,30.85,8.358l2.871-.62c.79-.179,1.731-.456,2.8-.788Z" transform="translate(283.321 471.183) rotate(-69)" fill="#fff"/>
        <path id="Path_2730" data-name="Path 2730" d="M109.087,171.545c-1.8.569-3.768,1.113-5.9,1.609-1.472.343-3.478.719-5.981,1.109a81.5,81.5,0,0,1-62.9-16.7A89.62,89.62,0,0,1,1.249,101.337l-.06.015-.086-.916A89.676,89.676,0,0,1,15.372,35.96,81.543,81.543,0,0,1,70.208.99L70.3.975a80.2,80.2,0,0,1,29.58.865A83.181,83.181,0,0,1,127.237,13.4L104.5,48.4a40.858,40.858,0,0,0-13.534-5.68h-.084a38.624,38.624,0,0,0-14.169-.54l-.049.011a39.948,39.948,0,0,0-26.79,17.325,47.97,47.97,0,0,0-7.7,33.653l.051-.011.084.912a47.957,47.957,0,0,0,17.66,30.622,40.05,40.05,0,0,0,30.85,8.358l2.871-.62c.79-.179,1.731-.456,2.8-.788Z" transform="matrix(-0.799, 0.602, -0.602, -0.799, 889.135, 379.374)" fill="#fff"/>
        <path id="Path_2723" data-name="Path 2723" d="M109.087,171.544c-1.8.569-3.768,1.113-5.9,1.609-1.472.343-3.478.719-5.981,1.109a81.5,81.5,0,0,1-62.9-16.7A89.62,89.62,0,0,1,1.249,101.337l-.06.015-.086-.916A89.676,89.676,0,0,1,15.372,35.96,81.543,81.543,0,0,1,70.208.99L70.3.975a80.2,80.2,0,0,1,29.58.865A83.183,83.183,0,0,1,127.236,13.4L104.5,48.4a40.858,40.858,0,0,0-13.534-5.68h-.084a38.623,38.623,0,0,0-14.169-.54l-.049.011a39.948,39.948,0,0,0-26.79,17.325,47.97,47.97,0,0,0-7.7,33.653l.051-.011.084.912a47.957,47.957,0,0,0,17.66,30.622,40.05,40.05,0,0,0,30.85,8.358l2.871-.62c.79-.179,1.731-.456,2.8-.788Z" transform="matrix(0.799, -0.602, 0.602, 0.799, 275.566, 132.863)" fill="#fff"/>
        <path id="Path_2726" data-name="Path 2726" d="M109.087,171.545c-1.8.569-3.768,1.113-5.9,1.609-1.472.343-3.478.719-5.981,1.109a81.5,81.5,0,0,1-62.9-16.7A89.62,89.62,0,0,1,1.249,101.337l-.06.015-.086-.916A89.676,89.676,0,0,1,15.372,35.96,81.543,81.543,0,0,1,70.208.99L70.3.975a80.2,80.2,0,0,1,29.58.865A83.181,83.181,0,0,1,127.237,13.4L104.5,48.4a40.858,40.858,0,0,0-13.534-5.68h-.084a38.624,38.624,0,0,0-14.169-.54l-.049.011a39.948,39.948,0,0,0-26.79,17.325,47.97,47.97,0,0,0-7.7,33.653l.051-.011.084.912a47.957,47.957,0,0,0,17.66,30.622,40.05,40.05,0,0,0,30.85,8.358l2.871-.62c.79-.179,1.731-.456,2.8-.788Z" transform="matrix(-0.799, 0.602, -0.602, -0.799, 904.948, 728.016)" fill="#fff"/>
        <path id="Path_2719" data-name="Path 2719" d="M109.088,3.676c-1.8-.569-3.768-1.113-5.9-1.609-1.472-.343-3.478-.719-5.981-1.109a81.5,81.5,0,0,0-62.9,16.7A89.619,89.619,0,0,0,1.249,73.883l-.06-.015-.086.916A89.674,89.674,0,0,0,15.372,139.26a81.545,81.545,0,0,0,54.836,34.97l.093.015a80.2,80.2,0,0,0,29.58-.865,83.182,83.182,0,0,0,27.355-11.564l-22.733-35a40.858,40.858,0,0,1-13.534,5.68h-.084a38.624,38.624,0,0,1-14.169.54l-.049-.011A39.948,39.948,0,0,1,49.877,115.7a47.968,47.968,0,0,1-7.7-33.653l.051.011.084-.912a47.957,47.957,0,0,1,17.66-30.622,40.05,40.05,0,0,1,30.85-8.358l2.871.62c.79.179,1.731.456,2.8.788Z" transform="matrix(-0.799, -0.602, 0.602, -0.799, 207.388, 774.694)" fill="#fff"/>
        <path id="Path_2732" data-name="Path 2732" d="M109.088,3.676c-1.8-.569-3.768-1.113-5.9-1.609-1.472-.343-3.478-.719-5.981-1.109a81.5,81.5,0,0,0-62.9,16.7A89.619,89.619,0,0,0,1.249,73.883l-.06-.015-.086.916A89.674,89.674,0,0,0,15.372,139.26a81.545,81.545,0,0,0,54.836,34.97l.093.015a80.2,80.2,0,0,0,29.58-.865,83.181,83.181,0,0,0,27.355-11.564l-22.733-35a40.857,40.857,0,0,1-13.534,5.68h-.084a38.623,38.623,0,0,1-14.169.54l-.049-.011A39.948,39.948,0,0,1,49.877,115.7a47.968,47.968,0,0,1-7.7-33.653l.051.011.084-.912a47.957,47.957,0,0,1,17.66-30.622,40.05,40.05,0,0,1,30.85-8.358l2.871.62c.79.179,1.731.456,2.8.788Z" transform="matrix(0.799, 0.602, -0.602, 0.799, 884.124, 59.185)" fill="#fff"/>
        <path id="Path_2727" data-name="Path 2727" d="M109.088,3.676c-1.8-.569-3.768-1.113-5.9-1.609-1.472-.343-3.478-.719-5.981-1.109a81.5,81.5,0,0,0-62.9,16.7A89.619,89.619,0,0,0,1.249,73.883l-.06-.015-.086.916A89.674,89.674,0,0,0,15.372,139.26a81.545,81.545,0,0,0,54.836,34.97l.093.015a80.2,80.2,0,0,0,29.58-.865,83.181,83.181,0,0,0,27.355-11.564l-22.733-35a40.857,40.857,0,0,1-13.534,5.68h-.084a38.623,38.623,0,0,1-14.169.54l-.049-.011A39.948,39.948,0,0,1,49.877,115.7a47.968,47.968,0,0,1-7.7-33.653l.051.011.084-.912a47.957,47.957,0,0,1,17.66-30.622,40.05,40.05,0,0,1,30.85-8.358l2.871.62c.79.179,1.731.456,2.8.788Z" transform="matrix(0.799, 0.602, -0.602, 0.799, 898.499, 425.602)" fill="#fff"/>
      </g>
      <g id="Group_1872" data-name="Group 1872" transform="translate(804.024 -534.778)" opacity="0.45">
        <path id="Path_2502-2" data-name="Path 2502" d="M97.014,217.724C69.568,215.883,45.2,202.91,27.74,183.111A112.9,112.9,0,0,1,29.959,32.389C48.757,12.379,74.791,0,103.593,0A99.12,99.12,0,0,1,143.62,8.494a103.419,103.419,0,0,1,33.608,23.895l-28.79,27.092a63.846,63.846,0,0,0-20.765-14.769,59.606,59.606,0,0,0-24.081-5.086c-17.462,0-33.323,7.59-44.844,19.855a72.039,72.039,0,0,0-19.118,49.51,72.278,72.278,0,0,0,17.676,47.959,61.974,61.974,0,0,0,42.343,21.3Z" transform="translate(186.309 362.462) rotate(30)" fill="#fff"/>
        <path id="Path_2729-2" data-name="Path 2729" d="M97.014,217.725c-27.446-1.84-51.814-14.813-69.275-34.613A112.9,112.9,0,0,1,29.959,32.389C48.757,12.379,74.791,0,103.593,0A99.12,99.12,0,0,1,143.62,8.494a103.419,103.419,0,0,1,33.608,23.895l-28.79,27.093a63.845,63.845,0,0,0-20.765-14.769,59.606,59.606,0,0,0-24.081-5.086c-17.462,0-33.323,7.59-44.845,19.855a72.039,72.039,0,0,0-19.118,49.51,72.282,72.282,0,0,0,17.676,47.96,61.974,61.974,0,0,0,42.343,21.3Z" transform="matrix(-0.485, -0.875, 0.875, -0.485, 907.525, 432.05)" fill="#fff"/>
        <path id="Path_2724" data-name="Path 2724" d="M97.014,217.724C69.568,215.883,45.2,202.91,27.74,183.111A112.9,112.9,0,0,1,29.959,32.389C48.757,12.379,74.791,0,103.593,0A99.12,99.12,0,0,1,143.62,8.494a103.419,103.419,0,0,1,33.608,23.895l-28.79,27.092a63.846,63.846,0,0,0-20.765-14.769,59.606,59.606,0,0,0-24.081-5.086c-17.462,0-33.323,7.59-44.844,19.855a72.039,72.039,0,0,0-19.118,49.51,72.278,72.278,0,0,0,17.676,47.959,61.974,61.974,0,0,0,42.343,21.3Z" transform="matrix(0.485, 0.875, -0.875, 0.485, 190.426, 36.638)" fill="#fff"/>
        <path id="Path_2725-2" data-name="Path 2725" d="M97.014,217.725c-27.446-1.84-51.814-14.813-69.275-34.613A112.9,112.9,0,0,1,29.959,32.389C48.757,12.379,74.791,0,103.593,0A99.12,99.12,0,0,1,143.62,8.494a103.419,103.419,0,0,1,33.608,23.895l-28.79,27.093a63.845,63.845,0,0,0-20.765-14.769,59.606,59.606,0,0,0-24.081-5.086c-17.462,0-33.323,7.59-44.845,19.855a72.039,72.039,0,0,0-19.118,49.51,72.282,72.282,0,0,0,17.676,47.96,61.974,61.974,0,0,0,42.343,21.3Z" transform="matrix(-0.485, -0.875, 0.875, -0.485, 926.974, 761.178)" fill="#fff"/>
        <path id="Path_2720-2" data-name="Path 2720" d="M97.014,0C69.568,1.84,45.2,14.813,27.74,34.612a112.9,112.9,0,0,0,2.219,150.721c18.8,20.01,44.833,32.39,73.635,32.39a99.12,99.12,0,0,0,40.028-8.494,103.416,103.416,0,0,0,33.608-23.895l-28.79-27.092a63.847,63.847,0,0,1-20.765,14.769,59.607,59.607,0,0,1-24.081,5.086c-17.462,0-33.323-7.59-44.844-19.856a72.039,72.039,0,0,1-19.118-49.51A72.278,72.278,0,0,1,57.306,60.772a61.977,61.977,0,0,1,42.343-21.3Z" transform="matrix(-0.485, 0.875, -0.875, -0.485, 651.447, 642.807)" fill="#fff"/>
        <path id="Path_2731-2" data-name="Path 2731" d="M97.014,0C69.568,1.84,45.2,14.813,27.74,34.612a112.9,112.9,0,0,0,2.219,150.722c18.8,20.01,44.833,32.39,73.635,32.39a99.119,99.119,0,0,0,40.028-8.494,103.416,103.416,0,0,0,33.608-23.895l-28.79-27.092a63.845,63.845,0,0,1-20.765,14.769,59.606,59.606,0,0,1-24.081,5.086c-17.462,0-33.323-7.59-44.845-19.856a72.04,72.04,0,0,1-19.118-49.51A72.279,72.279,0,0,1,57.306,60.772a61.976,61.976,0,0,1,42.343-21.3Z" transform="matrix(0.485, -0.875, 0.875, 0.485, 465.95, 155.008)" fill="#fff"/>
        <path id="Path_2722-2" data-name="Path 2722" d="M97.014,0C69.568,1.84,45.2,14.813,27.74,34.612a112.9,112.9,0,0,0,2.219,150.721c18.8,20.01,44.833,32.39,73.635,32.39a99.12,99.12,0,0,0,40.028-8.494,103.416,103.416,0,0,0,33.608-23.895l-28.79-27.092a63.847,63.847,0,0,1-20.765,14.769,59.607,59.607,0,0,1-24.081,5.086c-17.462,0-33.323-7.59-44.844-19.856a72.039,72.039,0,0,1-19.118-49.51A72.278,72.278,0,0,1,57.306,60.772a61.977,61.977,0,0,1,42.343-21.3Z" transform="matrix(-0.485, 0.875, -0.875, -0.485, 638.134, 295.523)" fill="#fff"/>
        <path id="Path_2728-2" data-name="Path 2728" d="M97.014,0C69.568,1.84,45.2,14.813,27.74,34.612a112.9,112.9,0,0,0,2.219,150.722c18.8,20.01,44.833,32.39,73.635,32.39a99.119,99.119,0,0,0,40.028-8.494,103.416,103.416,0,0,0,33.608-23.895l-28.79-27.092a63.845,63.845,0,0,1-20.765,14.769,59.606,59.606,0,0,1-24.081,5.086c-17.462,0-33.323-7.59-44.845-19.856a72.04,72.04,0,0,1-19.118-49.51A72.279,72.279,0,0,1,57.306,60.772a61.976,61.976,0,0,1,42.343-21.3Z" transform="matrix(0.485, -0.875, 0.875, 0.485, 479.263, 502.291)" fill="#fff"/>
        <path id="Path_2503-2" data-name="Path 2503" d="M103.255,162.373c-1.7.539-3.567,1.053-5.585,1.523-1.393.325-3.292.68-5.661,1.05a77.142,77.142,0,0,1-59.541-15.8A84.828,84.828,0,0,1,1.182,95.919l-.057.014-.081-.867A84.882,84.882,0,0,1,14.55,34.038a77.184,77.184,0,0,1,51.9-33.1l.088-.014a75.909,75.909,0,0,1,28,.818,78.736,78.736,0,0,1,25.893,10.946L98.916,45.813a38.674,38.674,0,0,0-12.811-5.376h-.079a36.558,36.558,0,0,0-13.412-.511l-.047.01a37.812,37.812,0,0,0-25.357,16.4,45.405,45.405,0,0,0-7.284,31.854l.048-.01.079.863A45.393,45.393,0,0,0,56.77,118.026a37.909,37.909,0,0,0,29.2,7.911l2.718-.587c.748-.169,1.638-.432,2.648-.746Z" transform="matrix(0.799, -0.602, 0.602, 0.799, 275.799, 438.724)" fill="#fff"/>
        <path id="Path_2730-2" data-name="Path 2730" d="M103.255,162.373c-1.7.539-3.567,1.053-5.585,1.523-1.393.325-3.292.68-5.661,1.05a77.143,77.143,0,0,1-59.541-15.8A84.829,84.829,0,0,1,1.182,95.919l-.057.014-.081-.867A84.882,84.882,0,0,1,14.55,34.038a77.184,77.184,0,0,1,51.9-33.1l.088-.014a75.908,75.908,0,0,1,28,.818,78.734,78.734,0,0,1,25.893,10.946L98.916,45.813a38.674,38.674,0,0,0-12.811-5.376h-.079a36.559,36.559,0,0,0-13.412-.511l-.047.01a37.812,37.812,0,0,0-25.357,16.4,45.405,45.405,0,0,0-7.284,31.854l.048-.01.079.863A45.393,45.393,0,0,0,56.77,118.026a37.909,37.909,0,0,0,29.2,7.911l2.718-.587c.748-.169,1.638-.432,2.648-.746Z" transform="matrix(-0.799, 0.602, -0.602, -0.799, 841.599, 359.091)" fill="#fff"/>
        <path id="Path_2723-2" data-name="Path 2723" d="M103.255,162.373c-1.7.539-3.567,1.053-5.585,1.523-1.393.325-3.292.68-5.661,1.05a77.142,77.142,0,0,1-59.541-15.8A84.828,84.828,0,0,1,1.182,95.919l-.057.014-.081-.867A84.882,84.882,0,0,1,14.55,34.038a77.184,77.184,0,0,1,51.9-33.1l.088-.014a75.909,75.909,0,0,1,28,.818,78.736,78.736,0,0,1,25.893,10.946L98.916,45.813a38.674,38.674,0,0,0-12.811-5.376h-.079a36.558,36.558,0,0,0-13.412-.511l-.047.01a37.812,37.812,0,0,0-25.357,16.4,45.405,45.405,0,0,0-7.284,31.854l.048-.01.079.863A45.393,45.393,0,0,0,56.77,118.026a37.909,37.909,0,0,0,29.2,7.911l2.718-.587c.748-.169,1.638-.432,2.648-.746Z" transform="matrix(0.799, -0.602, 0.602, 0.799, 260.833, 108.722)" fill="#fff"/>
        <path id="Path_2726-2" data-name="Path 2726" d="M103.255,162.373c-1.7.539-3.567,1.053-5.585,1.523-1.393.325-3.292.68-5.661,1.05a77.143,77.143,0,0,1-59.541-15.8A84.829,84.829,0,0,1,1.182,95.919l-.057.014-.081-.867A84.882,84.882,0,0,1,14.55,34.038a77.184,77.184,0,0,1,51.9-33.1l.088-.014a75.908,75.908,0,0,1,28,.818,78.734,78.734,0,0,1,25.893,10.946L98.916,45.813a38.674,38.674,0,0,0-12.811-5.376h-.079a36.559,36.559,0,0,0-13.412-.511l-.047.01a37.812,37.812,0,0,0-25.357,16.4,45.405,45.405,0,0,0-7.284,31.854l.048-.01.079.863A45.393,45.393,0,0,0,56.77,118.026a37.909,37.909,0,0,0,29.2,7.911l2.718-.587c.748-.169,1.638-.432,2.648-.746Z" transform="matrix(-0.799, 0.602, -0.602, -0.799, 856.566, 689.092)" fill="#fff"/>
        <path id="Path_2719-2" data-name="Path 2719" d="M103.256,3.479c-1.7-.539-3.567-1.053-5.585-1.523-1.393-.325-3.292-.68-5.661-1.05a77.143,77.143,0,0,0-59.541,15.8A84.827,84.827,0,0,0,1.182,69.933l-.057-.014-.081.867A84.88,84.88,0,0,0,14.55,131.815a77.186,77.186,0,0,0,51.9,33.1l.088.014a75.909,75.909,0,0,0,28-.818,78.735,78.735,0,0,0,25.893-10.946L98.916,120.04a38.673,38.673,0,0,1-12.811,5.376h-.079a36.56,36.56,0,0,1-13.412.511l-.047-.01a37.812,37.812,0,0,1-25.357-16.4,45.4,45.4,0,0,1-7.284-31.854l.048.01.079-.863A45.393,45.393,0,0,1,56.771,47.827a37.909,37.909,0,0,1,29.2-7.911l2.718.587c.748.169,1.638.432,2.648.746Z" transform="matrix(-0.799, -0.602, 0.602, -0.799, 258.542, 710.794)" fill="#fff"/>
        <path id="Path_2732-2" data-name="Path 2732" d="M103.256,3.479c-1.7-.539-3.567-1.053-5.585-1.523-1.393-.325-3.292-.68-5.661-1.05a77.143,77.143,0,0,0-59.541,15.8A84.828,84.828,0,0,0,1.182,69.933l-.057-.014-.081.867A84.88,84.88,0,0,0,14.55,131.815a77.185,77.185,0,0,0,51.9,33.1l.088.014a75.908,75.908,0,0,0,28-.818,78.734,78.734,0,0,0,25.893-10.946L98.916,120.04a38.673,38.673,0,0,1-12.811,5.376h-.079a36.558,36.558,0,0,1-13.412.511l-.047-.01a37.812,37.812,0,0,1-25.357-16.4,45.4,45.4,0,0,1-7.284-31.854l.048.01.079-.863A45.393,45.393,0,0,1,56.771,47.827a37.909,37.909,0,0,1,29.2-7.911l2.718.587c.748.169,1.638.432,2.648.746Z" transform="matrix(0.799, 0.602, -0.602, 0.799, 836.855, 56.021)" fill="#fff"/>
        <path id="Path_2721" data-name="Path 2721" d="M103.256,3.479c-1.7-.539-3.567-1.053-5.585-1.523-1.393-.325-3.292-.68-5.661-1.05a77.143,77.143,0,0,0-59.541,15.8A84.827,84.827,0,0,0,1.182,69.933l-.057-.014-.081.867A84.88,84.88,0,0,0,14.55,131.815a77.186,77.186,0,0,0,51.9,33.1l.088.014a75.909,75.909,0,0,0,28-.818,78.735,78.735,0,0,0,25.893-10.946L98.916,120.04a38.673,38.673,0,0,1-12.811,5.376h-.079a36.56,36.56,0,0,1-13.412.511l-.047-.01a37.812,37.812,0,0,1-25.357-16.4,45.4,45.4,0,0,1-7.284-31.854l.048.01.079-.863A45.393,45.393,0,0,1,56.771,47.827a37.909,37.909,0,0,1,29.2-7.911l2.718.587c.748.169,1.638.432,2.648.746Z" transform="matrix(-0.799, -0.602, 0.602, -0.799, 266.937, 394.968)" fill="#fff"/>
        <path id="Path_2727-2" data-name="Path 2727" d="M103.256,3.479c-1.7-.539-3.567-1.053-5.585-1.523-1.393-.325-3.292-.68-5.661-1.05a77.143,77.143,0,0,0-59.541,15.8A84.828,84.828,0,0,0,1.182,69.933l-.057-.014-.081.867A84.88,84.88,0,0,0,14.55,131.815a77.185,77.185,0,0,0,51.9,33.1l.088.014a75.908,75.908,0,0,0,28-.818,78.734,78.734,0,0,0,25.893-10.946L98.916,120.04a38.673,38.673,0,0,1-12.811,5.376h-.079a36.558,36.558,0,0,1-13.412.511l-.047-.01a37.812,37.812,0,0,1-25.357-16.4,45.4,45.4,0,0,1-7.284-31.854l.048.01.079-.863A45.393,45.393,0,0,1,56.771,47.827a37.909,37.909,0,0,1,29.2-7.911l2.718.587c.748.169,1.638.432,2.648.746Z" transform="matrix(0.799, 0.602, -0.602, 0.799, 850.462, 402.847)" fill="#fff"/>
      </g>
    </g>
  </g>
</svg>
