<svg xmlns="http://www.w3.org/2000/svg" xmlns:xlink="http://www.w3.org/1999/xlink" width="119.068" height="119.069" viewBox="0 0 119.068 119.069">
  <defs>
    <clipPath id="clip-path">
      <rect id="Rectangle_1299" data-name="Rectangle 1299" width="119.069" height="119.069" transform="translate(1027.56 182.142)" fill="#1a1a1a"/>
    </clipPath>
  </defs>
  <g id="Group_1840" data-name="Group 1840" transform="translate(-1027.56 -182.142)" clip-path="url(#clip-path)">
    <path id="Path_2540" data-name="Path 2540" d="M1144.64,182.142h-115.1a1.981,1.981,0,0,0-1.977,1.985v115.1a1.984,1.984,0,0,0,2.414,1.937l17.445-3.878,19.444,3.886a1.972,1.972,0,0,0,.776,0l19.455-3.89,19.455,3.89a1.972,1.972,0,0,0,.776,0l19.433-3.886,17.456,3.878a1.949,1.949,0,0,0,.426.047,1.983,1.983,0,0,0,1.988-1.984v-115.1A1.99,1.99,0,0,0,1144.64,182.142Zm-1.988,114.608-15.446-3.431a1.935,1.935,0,0,0-.819-.008l-19.455,3.89-19.455-3.89a1.888,1.888,0,0,0-.382-.039,1.92,1.92,0,0,0-.393.039l-19.455,3.89-19.455-3.89a1.936,1.936,0,0,0-.819.008l-15.446,3.431V201.987h111.127Zm0-98.733H1031.525V186.111h111.127Z" fill="#1a1a1a"/>
    <path id="Path_2541" data-name="Path 2541" d="M1038.8,189.409h-3.976v3.969h3.976Z" transform="translate(0.67 0.671)" fill="#1a1a1a"/>
    <path id="Path_2542" data-name="Path 2542" d="M1046.055,189.409h-3.965v3.969h3.965Z" transform="translate(1.342 0.671)" fill="#1a1a1a"/>
    <path id="Path_2543" data-name="Path 2543" d="M1053.325,189.409h-3.965v3.969h3.965Z" transform="translate(2.014 0.671)" fill="#1a1a1a"/>
    <path id="Path_2544" data-name="Path 2544" d="M1107.72,189.409h-45.65v3.969h45.65Z" transform="translate(3.188 0.671)" fill="#1a1a1a"/>
    <path id="Path_2545" data-name="Path 2545" d="M1129.625,189.409h-3.965v3.969h3.965Z" transform="translate(9.062 0.671)" fill="#1a1a1a"/>
    <path id="Path_2546" data-name="Path 2546" d="M1110.2,205.759h-51.593a1.989,1.989,0,0,0-1.988,1.984v31.752a1.99,1.99,0,0,0,1.988,1.984H1110.2a1.983,1.983,0,0,0,1.988-1.984V207.743A1.983,1.983,0,0,0,1110.2,205.759Zm-7,3.969-18.789,11.562-18.789-11.562Zm-42.6,1.568,20.023,12.323L1060.6,235.945V211.3Zm5.025,26.215,18.789-11.562L1103.2,237.51Zm42.6-1.568-20.034-12.324,20.034-12.325v24.649Z" transform="translate(2.684 2.182)" fill="#1a1a1a"/>
    <path id="Path_2547" data-name="Path 2547" d="M1125.871,221.327l-5.953-5.953-2.807,2.806,4.544,4.55-4.544,4.551,2.807,2.806,5.953-5.953A1.983,1.983,0,0,0,1125.871,221.327Z" transform="translate(8.272 3.07)" fill="#1a1a1a"/>
    <path id="Path_2548" data-name="Path 2548" d="M1047.8,218.18l-2.807-2.806-5.953,5.953a1.983,1.983,0,0,0,0,2.806l5.953,5.953,2.807-2.806-4.555-4.551Z" transform="translate(1.007 3.07)" fill="#1a1a1a"/>
    <path id="Path_2549" data-name="Path 2549" d="M1069.675,242.092h-3.965v3.969h3.965Z" transform="translate(3.524 5.538)" fill="#1a1a1a"/>
    <path id="Path_2550" data-name="Path 2550" d="M1076.946,242.092h-3.976v3.969h3.976Z" transform="translate(4.195 5.538)" fill="#1a1a1a"/>
    <path id="Path_2551" data-name="Path 2551" d="M1084.205,242.092h-3.965v3.969h3.965Z" transform="translate(4.866 5.538)" fill="#1a1a1a"/>
    <path id="Path_2552" data-name="Path 2552" d="M1091.475,242.092h-3.965v3.969h3.965Z" transform="translate(5.538 5.538)" fill="#1a1a1a"/>
    <path id="Path_2553" data-name="Path 2553" d="M1098.746,242.092h-3.976v3.969h3.976Z" transform="translate(6.208 5.538)" fill="#1a1a1a"/>
    <path id="Path_2554" data-name="Path 2554" d="M1062.442,249.358h-23.814a1.99,1.99,0,0,0-1.988,1.985v15.875a1.99,1.99,0,0,0,1.988,1.985h23.814a1.981,1.981,0,0,0,1.977-1.985V251.343A1.981,1.981,0,0,0,1062.442,249.358Zm-6.554,3.97-5.353,3.568-5.353-3.568Zm-15.282,1.724,6.347,4.23-6.347,4.231Zm4.577,10.183,5.353-3.569,5.353,3.569Zm15.271-1.725-6.347-4.229,6.347-4.231Z" transform="translate(0.839 6.209)" fill="#1a1a1a"/>
    <path id="Path_2555" data-name="Path 2555" d="M1095.142,249.358h-23.814a1.984,1.984,0,0,0-1.988,1.985v15.875a1.984,1.984,0,0,0,1.988,1.985h23.814a1.981,1.981,0,0,0,1.977-1.985V251.343A1.981,1.981,0,0,0,1095.142,249.358Zm-6.554,3.97-5.352,3.568-5.353-3.568Zm-15.282,1.724,6.347,4.23-6.347,4.231Zm4.577,10.183,5.353-3.569,5.352,3.569Zm15.271-1.725-6.347-4.229,6.347-4.231Z" transform="translate(3.859 6.209)" fill="#1a1a1a"/>
    <path id="Path_2556" data-name="Path 2556" d="M1127.842,249.358h-23.814a1.983,1.983,0,0,0-1.988,1.985v15.875a1.983,1.983,0,0,0,1.988,1.985h23.814a1.981,1.981,0,0,0,1.977-1.985V251.343A1.981,1.981,0,0,0,1127.842,249.358Zm-6.554,3.97-5.353,3.568-5.353-3.568Zm-15.282,1.724,6.347,4.23-6.347,4.231Zm4.577,10.183,5.353-3.569,5.353,3.569Zm15.271-1.725-6.347-4.229,6.347-4.231v8.459Z" transform="translate(6.88 6.209)" fill="#1a1a1a"/>
    <path id="Path_2557" data-name="Path 2557" d="M1060.118,271.158H1040.27v3.97h19.848Z" transform="translate(1.174 8.223)" fill="#1a1a1a"/>
    <path id="Path_2558" data-name="Path 2558" d="M1092.818,271.158H1072.97v3.97h19.848Z" transform="translate(4.195 8.223)" fill="#1a1a1a"/>
    <path id="Path_2559" data-name="Path 2559" d="M1125.518,271.158H1105.67v3.97h19.848Z" transform="translate(7.215 8.223)" fill="#1a1a1a"/>
  </g>
</svg>
