<svg xmlns="http://www.w3.org/2000/svg" width="177.424" height="139.288" viewBox="0 0 177.424 139.288">
    <defs>
        <style>
            .cls-1{fill:none;stroke:#474747;stroke-linecap:round;stroke-linejoin:round;stroke-width:2px}
        </style>
    </defs>
    <g id="_14-Digital_Art" transform="translate(1 1)">
        <path id="Path_2797" d="M138.288 6H8.627A7.627 7.627 0 0 0 1 13.627v122.034a7.627 7.627 0 0 0 7.627 7.627H168.8a7.627 7.627 0 0 0 7.627-7.627V40.322" class="cls-1" transform="translate(-1 -6)"/>
        <circle id="Ellipse_263" cx="11.809" cy="11.809" r="11.809" class="cls-1" transform="translate(14.496 57.114)"/>
        <path id="Line_56" d="M0 0L0 106.841" class="cls-1" transform="translate(53.859 15.502)"/>
        <path id="Line_57" d="M0 0L14.62 0" class="cls-1" transform="translate(20.119 39.12)"/>
        <path id="Line_58" d="M0 0L14.62 0" class="cls-1" transform="translate(20.119 20.001)"/>
        <path id="Line_59" d="M0 0L14.62 0" class="cls-1" transform="translate(20.119 98.726)"/>
        <path id="Line_60" d="M0 0L14.62 0" class="cls-1" transform="translate(20.119 118.969)"/>
        <path id="Path_2798" d="M117.966 18v64.83a3.733 3.733 0 0 1-3.814 3.814H15" class="cls-1" transform="translate(38.39 27.763)"/>
        <path id="Line_61" d="M0 0L60.731 0" class="cls-1" transform="translate(53.859 22.25)"/>
        <path id="Path_2799" d="M27.922 82.258l-8.089 18.873 18.873-8.089 72.809-72.808a3.814 3.814 0 0 0 0-5.392l-5.392-5.392a3.814 3.814 0 0 0-5.392 0z" class="cls-1" transform="translate(51.988 .565)"/>
        <path id="Line_62" d="M10.785 10.785L0 0" class="cls-1" transform="translate(141.933 20.799)"/>
    </g>
</svg>
