<svg xmlns="http://www.w3.org/2000/svg" width="199.192" height="47.991" viewBox="0 0 199.192 47.991">
  <g id="Group_1889" data-name="Group 1889" transform="translate(-714.808 -160.738)">
    <path id="Path_2697" data-name="Path 2697" d="M753.8,188.069v7.908a1.256,1.256,0,0,0,.244.82,1.794,1.794,0,0,0,.873.436v.559h-7.437v-.559a1.776,1.776,0,0,0,.872-.453,1.181,1.181,0,0,0,.245-.8V175.8a1.206,1.206,0,0,0-.245-.82,1.784,1.784,0,0,0-.872-.454v-.559h14.908a23.263,23.263,0,0,1,4.311.315,7.679,7.679,0,0,1,2.792,1.1,5.54,5.54,0,0,1,2.061,2.461,8.043,8.043,0,0,1,.646,3.212q0,5.83-6.476,6.825l4.626,6.581a15.913,15.913,0,0,0,1.78,2.235,2.325,2.325,0,0,0,1.4.54v.559H764.9v-.559q.891-.139.891-.628a4.453,4.453,0,0,0-.821-1.518l-4.818-7.018Zm0-3.927h8.03a20.412,20.412,0,0,0,2.513-.105,3.966,3.966,0,0,0,1.344-.436,3.178,3.178,0,0,0,0-5.167,3.638,3.638,0,0,0-1.344-.437,19.946,19.946,0,0,0-2.513-.1H753.8Z" transform="translate(-32.213 -7.521)" fill="#5b5b5b"/>
    <path id="Path_2698" data-name="Path 2698" d="M784.021,187.285v6.529h15.327a1.186,1.186,0,0,0,.8-.245,1.776,1.776,0,0,0,.453-.872h.559v6.162H800.6a1.776,1.776,0,0,0-.453-.872,1.181,1.181,0,0,0-.8-.245H777.7v-.559a1.784,1.784,0,0,0,.873-.453,1.215,1.215,0,0,0,.244-.821V175.746a1.211,1.211,0,0,0-.244-.82,1.792,1.792,0,0,0-.873-.454v-.559h21.227a1.184,1.184,0,0,0,.8-.244,1.913,1.913,0,0,0,.453-.891h.559v6.162h-.559a1.77,1.77,0,0,0-.453-.856,1.184,1.184,0,0,0-.8-.244H784.021V183.5h9.67a1.186,1.186,0,0,0,.8-.244,1.8,1.8,0,0,0,.453-.873h.559V188.4h-.559a1.777,1.777,0,0,0-.453-.855,1.13,1.13,0,0,0-.8-.262Z" transform="translate(-33.524 -7.469)" fill="#5b5b5b"/>
    <path id="Path_2699" data-name="Path 2699" d="M807.213,195.959V175.8a1.211,1.211,0,0,0-.245-.82,1.784,1.784,0,0,0-.872-.454v-.559H819.38a17.752,17.752,0,0,1,6.7.995,9.56,9.56,0,0,1,4.958,4.783,13.853,13.853,0,0,1,1.274,6.127q0,6.162-3.788,9.391a9.571,9.571,0,0,1-3.718,1.955,21.246,21.246,0,0,1-5.429.576H806.1v-.559a1.776,1.776,0,0,0,.872-.453A1.216,1.216,0,0,0,807.213,195.959Zm5.2-2.094h6.529a10.094,10.094,0,0,0,4.7-.856q3.369-1.832,3.369-7.139a8.578,8.578,0,0,0-1.816-5.882,5.544,5.544,0,0,0-2.444-1.606,12.072,12.072,0,0,0-3.805-.489h-6.529Z" transform="translate(-34.756 -7.521)" fill="#5b5b5b"/>
    <path id="Path_2700" data-name="Path 2700" d="M860.811,189.2h-5.882a1.215,1.215,0,0,0-.821.244,1.9,1.9,0,0,0-.436.873h-.559v-5.551h.559a1.913,1.913,0,0,0,.436.89,1.274,1.274,0,0,0,.821.228h11.311v.559a1.9,1.9,0,0,0-.89.453,1.209,1.209,0,0,0-.245.821v4.887a1.21,1.21,0,0,0,.245.821,1.808,1.808,0,0,0,.89.453v.436a26.522,26.522,0,0,1-13.162,3.875,15.276,15.276,0,0,1-9.426-2.741,11.337,11.337,0,0,1-4.591-9.6,11.223,11.223,0,0,1,4.085-9.112q3.874-3.213,10.3-3.212a18.338,18.338,0,0,1,3.84.385,25.8,25.8,0,0,1,4.12,1.256,5.429,5.429,0,0,0,1.693.472,1.443,1.443,0,0,0,.855-.4l.489.262-2.793,5.708-.506-.262a1.872,1.872,0,0,0-.157-.82,2.237,2.237,0,0,0-.628-.628,9.278,9.278,0,0,0-3.125-1.361,14.446,14.446,0,0,0-3.892-.577,9.229,9.229,0,0,0-6.2,2.095,7.843,7.843,0,0,0-2.775,6.267,7.642,7.642,0,0,0,2.705,6.093,9.672,9.672,0,0,0,6.529,2.129,16.824,16.824,0,0,0,3.893-.454,12.719,12.719,0,0,0,3.317-1.239Z" transform="translate(-36.186 -7.502)" fill="#2c2c2c"/>
    <path id="Path_2701" data-name="Path 2701" d="M878.043,188.069v7.908a1.256,1.256,0,0,0,.244.82,1.793,1.793,0,0,0,.873.436v.559h-7.437v-.559a1.776,1.776,0,0,0,.872-.453,1.181,1.181,0,0,0,.245-.8V175.8a1.206,1.206,0,0,0-.245-.82,1.784,1.784,0,0,0-.872-.454v-.559h14.908a23.261,23.261,0,0,1,4.311.315,7.678,7.678,0,0,1,2.792,1.1,5.546,5.546,0,0,1,2.061,2.461,8.043,8.043,0,0,1,.646,3.212q0,5.83-6.476,6.825l4.626,6.581a15.83,15.83,0,0,0,1.78,2.235,2.324,2.324,0,0,0,1.4.54v.559h-8.624v-.559q.891-.139.891-.628a4.455,4.455,0,0,0-.821-1.518l-4.818-7.018Zm0-3.927h8.03a20.424,20.424,0,0,0,2.513-.105,3.965,3.965,0,0,0,1.344-.436,3.178,3.178,0,0,0,0-5.167,3.643,3.643,0,0,0-1.344-.437,19.948,19.948,0,0,0-2.513-.1h-8.03Z" transform="translate(-37.603 -7.521)" fill="#2c2c2c"/>
    <path id="Path_2702" data-name="Path 2702" d="M908.261,187.285v6.529h15.326a1.187,1.187,0,0,0,.8-.245,1.783,1.783,0,0,0,.453-.872h.559v6.162h-.559a1.783,1.783,0,0,0-.453-.872,1.182,1.182,0,0,0-.8-.245H901.942v-.559a1.784,1.784,0,0,0,.873-.453,1.215,1.215,0,0,0,.244-.821V175.746a1.211,1.211,0,0,0-.244-.82,1.792,1.792,0,0,0-.873-.454v-.559h21.226a1.187,1.187,0,0,0,.8-.244,1.913,1.913,0,0,0,.453-.891h.559v6.162h-.559a1.77,1.77,0,0,0-.453-.856,1.187,1.187,0,0,0-.8-.244H908.261V183.5h9.67a1.187,1.187,0,0,0,.8-.244,1.8,1.8,0,0,0,.453-.873h.559V188.4h-.559a1.777,1.777,0,0,0-.453-.855,1.131,1.131,0,0,0-.8-.262Z" transform="translate(-38.914 -7.469)" fill="#2c2c2c"/>
    <path id="Path_2703" data-name="Path 2703" d="M943.414,187.825v8.134a1.215,1.215,0,0,0,.244.821,1.913,1.913,0,0,0,.891.453v.559H937.06v-.559a1.9,1.9,0,0,0,.89-.453,1.157,1.157,0,0,0,.262-.821v-8.134l-7.7-10.84a10.458,10.458,0,0,0-1.571-1.867,2.493,2.493,0,0,0-1.344-.594v-.559h9.408v.559q-1.17.192-1.17,1.082a3.789,3.789,0,0,0,.716,1.379l4.294,6.389,4.416-6.389a3.412,3.412,0,0,0,.715-1.4.874.874,0,0,0-.314-.68,1.577,1.577,0,0,0-.855-.385v-.559h9.217v.559a2.585,2.585,0,0,0-1.362.594,11.1,11.1,0,0,0-1.554,1.867Z" transform="translate(-40.027 -7.521)" fill="#2c2c2c"/>
    <path id="Path_2704" data-name="Path 2704" d="M844.935,216.088H842.23l-.4.838a.692.692,0,0,0-.083.275c0,.128.1.217.293.266v.14h-1.973v-.14a.53.53,0,0,0,.266-.121,1.205,1.205,0,0,0,.209-.341l2.191-4.578a.87.87,0,0,0,.105-.349c0-.134-.084-.23-.253-.288v-.14H844.7v.14c-.171.05-.257.136-.257.257a.644.644,0,0,0,.083.289l2.269,4.591a1.6,1.6,0,0,0,.254.4.561.561,0,0,0,.292.14v.14h-2.191v-.14q.288-.047.288-.27a.692.692,0,0,0-.087-.271Zm-.375-.816-.964-2.121-.978,2.121Z" transform="translate(-36.23 -9.156)" fill="#2c2c2c"/>
    <path id="Path_2705" data-name="Path 2705" d="M859.055,212.146l-.712,1.4-.122-.07c0-.029,0-.052,0-.07,0-.1-.084-.2-.254-.319a3.11,3.11,0,0,0-1.824-.54,2.679,2.679,0,0,0-.816.113,1,1,0,0,0-.419.262.56.56,0,0,0-.157.38q0,.336.406.458a6.475,6.475,0,0,0,.9.131l.685.07a5.508,5.508,0,0,1,.986.179,2.312,2.312,0,0,1,.672.319,1.48,1.48,0,0,1,.467.563,1.644,1.644,0,0,1,.174.746,1.7,1.7,0,0,1-.406,1.117,2.178,2.178,0,0,1-1.139.659,4.535,4.535,0,0,1-1.235.162,5.239,5.239,0,0,1-2.334-.567,1.256,1.256,0,0,0-.293-.114.371.371,0,0,0-.179.1l-.126-.066.646-1.462.126.061v.056a.484.484,0,0,0,.187.363,2.4,2.4,0,0,0,.877.436,3.811,3.811,0,0,0,1.126.183,2.277,2.277,0,0,0,.991-.2.976.976,0,0,0,.363-.288.633.633,0,0,0,.135-.38.436.436,0,0,0-.319-.423,4.226,4.226,0,0,0-.9-.162l-.672-.07c-.452-.047-.77-.09-.956-.131a2.567,2.567,0,0,1-.559-.2,1.455,1.455,0,0,1-.625-.589,1.589,1.589,0,0,1-.2-.812,1.645,1.645,0,0,1,.52-1.247,2.85,2.85,0,0,1,2.042-.651,4.584,4.584,0,0,1,1.065.118,7.863,7.863,0,0,1,1.23.424,1.4,1.4,0,0,0,.31.1.364.364,0,0,0,.214-.1Z" transform="translate(-36.805 -9.151)" fill="#2c2c2c"/>
    <path id="Path_2706" data-name="Path 2706" d="M871.113,212.146l-.711,1.4-.123-.07c0-.029,0-.052,0-.07,0-.1-.085-.2-.253-.319a3.11,3.11,0,0,0-1.824-.54,2.675,2.675,0,0,0-.816.113,1,1,0,0,0-.419.262.56.56,0,0,0-.157.38q0,.336.406.458a6.48,6.48,0,0,0,.9.131l.685.07a5.507,5.507,0,0,1,.986.179,2.311,2.311,0,0,1,.672.319,1.489,1.489,0,0,1,.467.563,1.658,1.658,0,0,1,.174.746,1.7,1.7,0,0,1-.406,1.117,2.183,2.183,0,0,1-1.139.659,4.539,4.539,0,0,1-1.235.162,5.239,5.239,0,0,1-2.334-.567,1.274,1.274,0,0,0-.293-.114.367.367,0,0,0-.179.1l-.126-.066.646-1.462.126.061v.056a.481.481,0,0,0,.188.363,2.4,2.4,0,0,0,.877.436,3.811,3.811,0,0,0,1.126.183,2.278,2.278,0,0,0,.991-.2.966.966,0,0,0,.362-.288.629.629,0,0,0,.136-.38.436.436,0,0,0-.319-.423,4.237,4.237,0,0,0-.9-.162l-.673-.07c-.451-.047-.769-.09-.956-.131a2.576,2.576,0,0,1-.558-.2,1.455,1.455,0,0,1-.625-.589,1.588,1.588,0,0,1-.2-.812,1.645,1.645,0,0,1,.519-1.247,2.851,2.851,0,0,1,2.042-.651,4.584,4.584,0,0,1,1.065.118,7.9,7.9,0,0,1,1.23.424,1.4,1.4,0,0,0,.31.1.367.367,0,0,0,.214-.1Z" transform="translate(-37.329 -9.151)" fill="#2c2c2c"/>
    <path id="Path_2707" data-name="Path 2707" d="M880.9,211.54a3.5,3.5,0,0,1,2.47.842,3.1,3.1,0,0,1,.5,3.875,3.223,3.223,0,0,1-2.964,1.449,3.477,3.477,0,0,1-2.457-.843,2.931,2.931,0,0,1-.742-1.077,3.1,3.1,0,0,1-.222-1.165,3.047,3.047,0,0,1,.458-1.637A3.248,3.248,0,0,1,880.9,211.54Zm0,1.008a2.049,2.049,0,0,0-1.419.506,2.161,2.161,0,0,0,0,3.133,2.259,2.259,0,0,0,2.85,0,1.994,1.994,0,0,0,.515-.738,2.108,2.108,0,0,0,.157-.8,1.994,1.994,0,0,0-.672-1.593A2.136,2.136,0,0,0,880.909,212.548Z" transform="translate(-37.853 -9.151)" fill="#2c2c2c"/>
    <path id="Path_2708" data-name="Path 2708" d="M896.723,215.555l.829,1.244-.114.078a.341.341,0,0,0-.2-.114,1.558,1.558,0,0,0-.441.21,6.2,6.2,0,0,1-1.266.585,4.4,4.4,0,0,1-1.217.148,3.79,3.79,0,0,1-2.313-.668,2.817,2.817,0,0,1-.838-.964,3.032,3.032,0,0,1-.354-1.453,2.94,2.94,0,0,1,.633-1.882,3.447,3.447,0,0,1,2.876-1.2,4.357,4.357,0,0,1,1.213.148,6.152,6.152,0,0,1,1.266.584,1.582,1.582,0,0,0,.441.206.341.341,0,0,0,.2-.114l.114.078-.829,1.244-.118-.078a.972.972,0,0,0,.009-.118.329.329,0,0,0-.109-.235,1.775,1.775,0,0,0-.388-.271,3.281,3.281,0,0,0-1.637-.436,2.451,2.451,0,0,0-1.628.51,2.064,2.064,0,0,0,0,3.125,2.446,2.446,0,0,0,1.628.51,3.281,3.281,0,0,0,1.637-.436,1.9,1.9,0,0,0,.388-.266.344.344,0,0,0,.109-.24.891.891,0,0,0-.009-.114Z" transform="translate(-38.431 -9.151)" fill="#2c2c2c"/>
    <path id="Path_2709" data-name="Path 2709" d="M904.4,217.148V212.1a.3.3,0,0,0-.061-.2.443.443,0,0,0-.218-.114v-.14h1.86v.14a.4.4,0,0,0-.218.114.3.3,0,0,0-.061.2v5.044a.316.316,0,0,0,.061.21.437.437,0,0,0,.218.109v.14h-1.86v-.14a.443.443,0,0,0,.218-.113A.3.3,0,0,0,904.4,217.148Z" transform="translate(-39.009 -9.156)" fill="#2c2c2c"/>
    <path id="Path_2710" data-name="Path 2710" d="M916.85,216.088h-2.705l-.4.838a.694.694,0,0,0-.083.275c0,.128.1.217.293.266v.14H911.98v-.14a.526.526,0,0,0,.266-.121,1.2,1.2,0,0,0,.209-.341l2.191-4.578a.87.87,0,0,0,.105-.349c0-.134-.084-.23-.254-.288v-.14h2.112v.14c-.171.05-.257.136-.257.257a.645.645,0,0,0,.083.289l2.269,4.591a1.6,1.6,0,0,0,.254.4.561.561,0,0,0,.292.14v.14H917.06v-.14q.288-.047.288-.27a.691.691,0,0,0-.087-.271Zm-.375-.816-.964-2.121-.978,2.121Z" transform="translate(-39.35 -9.156)" fill="#2c2c2c"/>
    <path id="Path_2711" data-name="Path 2711" d="M927.867,212.619v4.516a.307.307,0,0,0,.06.206.452.452,0,0,0,.219.113v.14h-1.86v-.14a.444.444,0,0,0,.218-.113.3.3,0,0,0,.061-.206v-4.516h-1.85a.3.3,0,0,0-.2.061.417.417,0,0,0-.114.213h-.14v-1.54h.14a.5.5,0,0,0,.114.222.3.3,0,0,0,.2.061h5a.3.3,0,0,0,.206-.061.45.45,0,0,0,.113-.222h.14v1.54h-.14a.416.416,0,0,0-.113-.213.3.3,0,0,0-.206-.061Z" transform="translate(-39.883 -9.143)" fill="#2c2c2c"/>
    <path id="Path_2712" data-name="Path 2712" d="M937.969,214.98v1.632H941.8a.29.29,0,0,0,.2-.061.444.444,0,0,0,.114-.218h.14v1.54h-.14a.444.444,0,0,0-.114-.218.3.3,0,0,0-.2-.061H936.39v-.14a.452.452,0,0,0,.218-.113.307.307,0,0,0,.061-.206v-5.04a.306.306,0,0,0-.061-.2.452.452,0,0,0-.218-.114v-.14H941.7a.3.3,0,0,0,.2-.061.481.481,0,0,0,.114-.222h.139v1.54h-.139a.444.444,0,0,0-.114-.213.3.3,0,0,0-.2-.061h-3.727v1.414h2.417a.292.292,0,0,0,.2-.061.445.445,0,0,0,.114-.218h.14v1.506h-.14a.438.438,0,0,0-.114-.214.284.284,0,0,0-.2-.065Z" transform="translate(-40.409 -9.143)" fill="#2c2c2c"/>
    <path id="Path_2713" data-name="Path 2713" d="M954.348,212.146l-.711,1.4-.122-.07a.7.7,0,0,0,0-.07q0-.148-.252-.319a3.113,3.113,0,0,0-1.824-.54,2.675,2.675,0,0,0-.816.113.985.985,0,0,0-.419.262.556.556,0,0,0-.157.38q0,.336.406.458a6.474,6.474,0,0,0,.9.131l.685.07a5.526,5.526,0,0,1,.986.179,2.307,2.307,0,0,1,.672.319,1.483,1.483,0,0,1,.468.563,1.658,1.658,0,0,1,.174.746,1.7,1.7,0,0,1-.406,1.117,2.186,2.186,0,0,1-1.139.659,4.54,4.54,0,0,1-1.235.162,5.243,5.243,0,0,1-2.335-.567,1.256,1.256,0,0,0-.292-.114.367.367,0,0,0-.179.1l-.127-.066.647-1.462.126.061v.056a.481.481,0,0,0,.187.363,2.391,2.391,0,0,0,.877.436,3.811,3.811,0,0,0,1.126.183,2.277,2.277,0,0,0,.991-.2.966.966,0,0,0,.362-.288.629.629,0,0,0,.136-.38.436.436,0,0,0-.319-.423,4.238,4.238,0,0,0-.9-.162l-.672-.07c-.451-.047-.769-.09-.956-.131a2.6,2.6,0,0,1-.559-.2,1.459,1.459,0,0,1-.624-.589,1.59,1.59,0,0,1-.2-.812,1.648,1.648,0,0,1,.518-1.247,2.854,2.854,0,0,1,2.042-.651,4.586,4.586,0,0,1,1.066.118,7.9,7.9,0,0,1,1.23.424,1.367,1.367,0,0,0,.31.1.362.362,0,0,0,.213-.1Z" transform="translate(-40.94 -9.151)" fill="#2c2c2c"/>
    <path id="Path_2714" data-name="Path 2714" d="M838.969,205.06a.993.993,0,0,1,.993-.993h109a.993.993,0,1,1,0,1.986h-109A.992.992,0,0,1,838.969,205.06Z" transform="translate(-36.182 -8.827)" fill="#2c2c2c" fill-rule="evenodd"/>
    <path id="Path_2715" data-name="Path 2715" d="M747,168.993a.993.993,0,0,1,.993-.993h80.83a.993.993,0,1,1,0,1.986h-80.83A.993.993,0,0,1,747,168.993Z" transform="translate(-32.192 -7.262)" fill="#5b5b5b" fill-rule="evenodd"/>
  </g>
</svg>
