<svg xmlns="http://www.w3.org/2000/svg" width="200.914" height="58.755" viewBox="0 0 200.914 58.755">
  <g id="Group_1887" data-name="Group 1887" transform="translate(-6.067 -140.679)">
    <path id="Path_2679" data-name="Path 2679" d="M52.075,164.145H45.438V159.3H64.794v4.847H58.187v16.763H52.075Z" transform="translate(-1.754 -6.884)"/>
    <path id="Path_2680" data-name="Path 2680" d="M77.668,181.34q-4.816,0-7.5-2.624-2.655-2.624-2.655-7.44V159.3h6.112v11.793q0,5.186,4.106,5.186,4.075,0,4.075-5.186V159.3h6.02v11.979q0,4.816-2.686,7.44Q82.484,181.339,77.668,181.34Z" transform="translate(-2.712 -6.884)"/>
    <path id="Path_2681" data-name="Path 2681" d="M102.521,175.166H99.187v5.742H93.075V159.3h9.878a12.166,12.166,0,0,1,5.094.988,7.417,7.417,0,0,1,3.334,2.779,8.179,8.179,0,0,1,.062,8.335,7.347,7.347,0,0,1-3.119,2.716l4.662,6.792h-6.544Zm3.859-7.872a2.945,2.945,0,0,0-.957-2.347,4.216,4.216,0,0,0-2.84-.833h-3.4v6.328h3.4a4.326,4.326,0,0,0,2.84-.8A2.944,2.944,0,0,0,106.38,167.294Z" transform="translate(-3.821 -6.884)"/>
    <path id="Path_2682" data-name="Path 2682" d="M123.075,164.022v4.754h9.539V173.5h-9.539v7.409h-6.113V159.3H133.91v4.724Z" transform="translate(-4.858 -6.884)"/>
    <path id="Path_2683" data-name="Path 2683" d="M145.161,181.321a19.968,19.968,0,0,1-5.093-.649,12.526,12.526,0,0,1-4.013-1.729l2.006-4.508a12.989,12.989,0,0,0,3.365,1.544,12.8,12.8,0,0,0,3.766.586q3.518,0,3.519-1.759a1.431,1.431,0,0,0-1.019-1.358,16.9,16.9,0,0,0-3.21-.958,32.708,32.708,0,0,1-4.075-1.111,7.008,7.008,0,0,1-2.81-1.945,5.218,5.218,0,0,1-1.173-3.582,6.126,6.126,0,0,1,1.08-3.55,7.193,7.193,0,0,1,3.21-2.531,13.387,13.387,0,0,1,5.28-.926,18.031,18.031,0,0,1,4.2.494,12.576,12.576,0,0,1,3.643,1.389l-1.884,4.538a12.576,12.576,0,0,0-5.988-1.667,4.909,4.909,0,0,0-2.656.556,1.584,1.584,0,0,0-.833,1.389,1.392,1.392,0,0,0,.988,1.3,17.887,17.887,0,0,0,3.179.9,27.372,27.372,0,0,1,4.075,1.142,6.725,6.725,0,0,1,2.81,1.913,5.015,5.015,0,0,1,1.2,3.551,6.076,6.076,0,0,1-1.08,3.518,7.465,7.465,0,0,1-3.241,2.532A13.314,13.314,0,0,1,145.161,181.321Z" transform="translate(-5.686 -6.865)"/>
    <path id="Path_2684" data-name="Path 2684" d="M177.884,181.34q-4.816,0-7.5-2.624-2.655-2.624-2.655-7.44V159.3h6.112v11.793q0,5.186,4.106,5.186,4.075,0,4.075-5.186V159.3h6.02v11.979q0,4.816-2.686,7.44Q182.7,181.339,177.884,181.34Z" transform="translate(-7.06 -6.884)"/>
    <path id="Path_2685" data-name="Path 2685" d="M203.169,159.3a12.166,12.166,0,0,1,5.094.988,7.422,7.422,0,0,1,3.334,2.779,8.212,8.212,0,0,1,0,8.458,7.694,7.694,0,0,1-3.334,2.778,12.5,12.5,0,0,1-5.094.957H199.4v5.65H193.29V159.3Zm-.37,11.145a4.326,4.326,0,0,0,2.84-.8,3.355,3.355,0,0,0,0-4.692,4.216,4.216,0,0,0-2.84-.833h-3.4v6.328Z" transform="translate(-8.169 -6.884)"/>
    <path id="Path_2686" data-name="Path 2686" d="M58.844,198.475q4.457.607,4.458,4.457a4.011,4.011,0,0,1-1.621,3.445,7.965,7.965,0,0,1-4.787,1.19H49.372V189.838h7.016A7.179,7.179,0,0,1,60.744,191a3.824,3.824,0,0,1,1.6,3.318,3.984,3.984,0,0,1-.937,2.735A4.692,4.692,0,0,1,58.844,198.475Zm-8.966-8.156v8h6.61a6.633,6.633,0,0,0,3.951-1.013,3.5,3.5,0,0,0,1.393-2.988,3.434,3.434,0,0,0-1.393-2.964,6.509,6.509,0,0,0-3.951-1.039ZM57,207.086q5.8,0,5.8-4.154a3.523,3.523,0,0,0-1.469-3.115A7.56,7.56,0,0,0,57,198.8H49.879v8.281Z" transform="translate(-1.925 -8.209)" fill="#2c2c2c"/>
    <path id="Path_2687" data-name="Path 2687" d="M79.8,202.223H68.959l-2.482,5.344h-.583l8.231-17.729h.507l8.231,17.729h-.583Zm-.228-.481-5.192-11.22-5.192,11.22Z" transform="translate(-2.642 -8.209)" fill="#2c2c2c"/>
    <path id="Path_2688" data-name="Path 2688" d="M101.335,189.838v17.729H100.9L87.912,190.775v16.791H87.4V189.838h.431l12.993,16.792V189.838Z" transform="translate(-3.575 -8.209)" fill="#2c2c2c"/>
    <path id="Path_2689" data-name="Path 2689" d="M121.851,198.876h.481v6.484a7.312,7.312,0,0,1-2.709,1.7,9.684,9.684,0,0,1-3.394.583,9.554,9.554,0,0,1-4.711-1.165,8.6,8.6,0,0,1-3.267-3.191,8.963,8.963,0,0,1-1.19-4.584,8.828,8.828,0,0,1,1.19-4.559,8.549,8.549,0,0,1,3.267-3.216,9.554,9.554,0,0,1,4.711-1.165,9.755,9.755,0,0,1,3.419.583,7.091,7.091,0,0,1,2.684,1.671l-.3.355a8.052,8.052,0,0,0-5.8-2.128,8.946,8.946,0,0,0-4.432,1.114,8.221,8.221,0,0,0-3.116,3.065,8.38,8.38,0,0,0-1.114,4.28,8.523,8.523,0,0,0,1.114,4.306,8.287,8.287,0,0,0,3.116,3.039,8.956,8.956,0,0,0,4.432,1.114,7.815,7.815,0,0,0,5.622-2Z" transform="translate(-4.428 -8.206)" fill="#2c2c2c"/>
    <path id="Path_2690" data-name="Path 2690" d="M140.144,202.223H129.305l-2.482,5.344h-.583l8.232-17.729h.506l8.232,17.729h-.583Zm-.228-.481-5.193-11.22-5.192,11.22Z" transform="translate(-5.26 -8.209)" fill="#2c2c2c"/>
    <path id="Path_2691" data-name="Path 2691" d="M147.751,189.838h.506v17.248h10.562v.481H147.751Z" transform="translate(-6.193 -8.209)" fill="#2c2c2c"/>
    <path id="Path_2692" data-name="Path 2692" d="M169.854,207.64a9.311,9.311,0,0,1-4.635-1.165,8.6,8.6,0,0,1-3.267-3.191,8.963,8.963,0,0,1-1.19-4.584,8.828,8.828,0,0,1,1.19-4.559,8.549,8.549,0,0,1,3.267-3.216,9.8,9.8,0,0,1,9.271,0,8.549,8.549,0,0,1,3.267,3.216,8.837,8.837,0,0,1,1.19,4.559,8.972,8.972,0,0,1-1.19,4.584,8.6,8.6,0,0,1-3.267,3.191A9.312,9.312,0,0,1,169.854,207.64Zm0-.481a8.781,8.781,0,0,0,4.356-1.09,8.082,8.082,0,0,0,3.09-3.039,8.418,8.418,0,0,0,1.14-4.331,8.286,8.286,0,0,0-1.14-4.306,7.86,7.86,0,0,0-3.09-3.039,8.619,8.619,0,0,0-4.356-1.114,8.76,8.76,0,0,0-4.381,1.114,8.091,8.091,0,0,0-3.09,3.039,8.444,8.444,0,0,0-1.114,4.306,8.579,8.579,0,0,0,1.114,4.331,8.328,8.328,0,0,0,3.09,3.039A8.925,8.925,0,0,0,169.854,207.159Z" transform="translate(-6.758 -8.206)" fill="#2c2c2c"/>
    <path id="Path_2693" data-name="Path 2693" d="M197.44,207.567l-4.508-6.255a10.75,10.75,0,0,1-2.077.177h-5.5v6.078h-.506V189.838h6a7.748,7.748,0,0,1,5.116,1.545,5.232,5.232,0,0,1,1.848,4.281,5.586,5.586,0,0,1-1.139,3.571,5.836,5.836,0,0,1-3.216,1.951l4.609,6.382Zm-6.534-6.56a7.141,7.141,0,0,0,4.736-1.393,5.506,5.506,0,0,0,0-7.9,7.141,7.141,0,0,0-4.736-1.394h-5.547v10.688Z" transform="translate(-7.803 -8.209)" fill="#2c2c2c"/>
    <path id="Path_2694" data-name="Path 2694" d="M215.607,207.086v.481h-11.8V189.838h11.422v.481H204.311v8h9.777v.481h-9.777v8.281Z" transform="translate(-8.625 -8.209)" fill="#2c2c2c"/>
    <path id="Path_2695" data-name="Path 2695" d="M30.738,176.485,6.116,160.226l26.393-13.195Z" transform="translate(-0.048 -6.352)" fill="#5c5b5b"/>
    <path id="Path_2696" data-name="Path 2696" d="M35.14,154.5l-1.671,27.8-23.24-15.347Z" transform="translate(-0.227 -6.676)" fill="none" stroke="#2c2c2c" stroke-width="1"/>
  </g>
</svg>
